<svg id="Layer_1" data-name="Layer 1" xmlns="http://www.w3.org/2000/svg" viewBox="0 0 382.76 382.92"><defs><style>.cls-1{fill:#fdfdfd;}.cls-2{fill:#f59f8b;}.cls-3{fill:#f59f8a;}.cls-4{fill:#ae2260;}.cls-5{fill:#ebdeea;}.cls-6{fill:#f5eeef;}.cls-7{fill:#f4e4eb;}.cls-8{fill:#f6e8ed;}.cls-9{fill:#f9ebf1;}.cls-10{fill:#f1846b;}.cls-11{fill:#971a45;}.cls-12{fill:#fce6ed;}.cls-13{fill:#f55983;}.cls-14{fill:#e56f91;}.cls-15{fill:#b01e5e;}.cls-16{fill:#d22734;}.cls-17{fill:#f9d8b0;}.cls-18{fill:#f97a5e;}.cls-19{fill:#e24048;}</style></defs><path class="cls-1" d="M881.75,372.47l-.73,0c-2.19.08-4.79-.51-6.43.48-1.07.65-.75,3.6-1.06,5.52l-.14,2.11c-2.73,1.67-6.74-.26-8.86,3.13-1.25.4-3,.41-3.67,1.27-2,2.45-3.77,2.19-5.52.14s-4.13-2.32-5.92-1.07c-1.45,1-2,3.33-2.94,5.07h-1.9a8.52,8.52,0,0,1-1.84-.3c-6.81-2.64-8.81-1.35-9,5.85l-1.59,1a16.8,16.8,0,0,1-2.56,0c-4.48-.66-6.9,1.5-6.72,5.95a30.2,30.2,0,0,1-.34,3.88h0c-.48.12-1,.22-1.44.36-6.25,1.75-6.5,2.39-5,8.78a4.82,4.82,0,0,1-1.32,4.13c-5.07,3.51-5.06,7.13.33,10l-.06,3c-3.32,1.06-4.75,3.68-3.57,6.6.78,1.92,3.3,3.14,5,4.67l-.73,1.5h0a19.72,19.72,0,0,0-4.7-.66c-1.57.14-3.62.5-4.51,1.56-1.57,1.88-2.41,4.36-3.56,6.58-6.22,0-8,2.22-6,7.51l0,1.4-.84,1.57c-4.22.09-6.77,1.73-6.5,4.72.18,2,1.38,3.88,2.12,5.82l-.13.75L790.21,475c-4.38,3.63-4.31,4.22-1.58,9,.83,1.48.62,3.74.38,5.58a27.48,27.48,0,0,1-1.76,5.2L785.84,501l-1.29,1.4c-6.31-.85-7.48,1.31-8.09,4.55-.3,1.58.67,3.41,1.06,5.12l-.71,1.47c-6.23,1.08-7.68,4.22-4.48,9.55a9.59,9.59,0,0,1,.68,2.46l.18,1.44c-3.87.77-6.11,4.61-4.13,7.49,1.21,1.75,3,3.07,4.59,4.59a3.47,3.47,0,0,1,.16.71c-1,1.54-2.59,3-2.95,4.64-1,4.66,2.54,5.7,6,6.58l0,0a24.65,24.65,0,0,1,0,3.94c-.83,5.26,1.44,8.26,7.47,6.67l1.47,1.49c0,.87,0,1.73,0,2.59.06,4.42,1.7,6,6.15,5.61a28.16,28.16,0,0,0,3.59-.72l-1.5,3.76c-3.39,1.23-5.26,4.23-3.29,6.36,2.91,3.14,1.26,5.63-.34,7.92-2.09,3-1.54,4.73,1.21,6.78,1.17.87,2.39,3,2.13,4.24-1.35,6.46,0,9,6.34,10.67v0l0,1.56c.35,5.63,1.14,6.64,5.25,6.74l2.22,0,.77.73,3,7.51c.14,1-.08,2.28.47,2.84,2.64,2.69,2.24,5.31.15,7.94-2.73,3.42-.83,7.35,4.15,8l.62,2.66c-2.17,5.63-1.82,8,1.64,9.67a45.35,45.35,0,0,0,5.07,1.78l0,0c-1,8.21.53,9.91,8,9,.12,0,.25,0,.37,0l2.08.84c.07,6.57,1.93,7.82,8.25,6.25a5.24,5.24,0,0,1,4.42,1.8c1.42,2,2.87,3.88,5.28,3,1.78-.62,3.12-2.51,4.65-3.83l2.87.12c4.37,5.7,7.57,5.3,11.29-1.4l1.41,0,.24,1.26c-1.56,8.15-.9,9.11,6.35,9.27l1,1.58,0,1.37c.09,5.56,1.84,7,7.12,6.07a11.29,11.29,0,0,1,1.84,0h0c.83,1.57,1.29,3.62,2.57,4.57,1.64,1.22,4.14,2.42,5.91,2,2.75-.61,4.77-1.17,6.82,1.4,1.92,2.42,5.43,2.48,7.05.43a41.69,41.69,0,0,0,2.4-3.74l.75-.28c4.18,3.4,8.16,7.25,14.28,6l.73.83.77.72h0c0,8.06,1.44,9.24,9.28,7.6a5.86,5.86,0,0,1,1.11-.05l.81.25c.85,6.5,3.91,8,9.64,5,1.1-.57,3.67-.19,4.39.7,3,3.73,5.86,4.21,9,.53,2-2.33,3.65-2.62,5.91-.57a4.49,4.49,0,0,0,2.39.8c4.85.61,5-3.41,6.25-6.4l.72-.31c1.21.2,2.43.36,3.64.59,4.72.91,6.78-.75,6.84-5.52,0-.87,0-1.74,0-2.61h0l.74-.82a.64.64,0,0,1,.32-.6c2.75,1.29,5.15.31,7.24-1.41s.89-3.82.21-5.81a8.58,8.58,0,0,1-.23-1.84l3,0c2.1,5.7,5.7,6.77,9.8,2.93h3.76c2.11,4,4.77,4,9,0l4.49-1.49c.46.48.84,1.28,1.37,1.41,3.86.9,6-1.23,6.15-5.9l1.55-1.33.11-.11a28.76,28.76,0,0,1,3.35,0c4,.46,5.4-.71,5.48-4.75l.06-3.37.91-.93,7.29-2.32c1.09-.4,2.46-.52,3.2-1.27,3.2-3.24,3.91-3.33,7-.18,2.38,2.39,6.88,1.76,8.25-1.23a27.37,27.37,0,0,0,1.07-3.54l1.49-.48c6.77,4.6,8.8,3.81,10.68-4.13.15-.6.39-1.17.59-1.76l.11-.06c1.19.21,2.37.49,3.57.63,4.2.52,6.55-1.87,6-6.08a26.23,26.23,0,0,0-.85-3.18.46.46,0,0,1,.31-.42c1.45-.3,2.92-.55,4.35-.92,3.86-1,5.85-4.84,3.66-7.64-2.37-3-1.19-4.22,1.7-5.5a5,5,0,0,0,1-8.52c-2.57-1.94-2.34-3.18-.17-5.22,3.53-3.33,2.6-7.23-1.9-8.94l-2.08-.81c0-.49,0-1,0-1.46l.7-.61,1.32-.28c.84.17,1.69.27,2.51.52,4.75,1.41,5.95.63,6.72-4.35.15-1,.46-1.9.7-2.84h0c8.43,0,9.72-1.47,8.24-9.48,0-.12,0-.25,0-.37a1.4,1.4,0,0,1,.19-.62c1.2-.29,2.42-.52,3.6-.9,3.11-1,4.57-3.87,3-6.74-1.72-3.11-1-5.05,1.61-7.2,1-.82,1.64-3.89,1-4.47-3.52-3.38-3.88-6.66-.89-10.46a4.82,4.82,0,0,0,.51-1.77c1.8-2.18,3-4.5,1.54-7.35l.81-.87c1.35,0,2.7,0,4,0,3.37-.12,5.08-1.76,4.79-5.06-.14-1.64-1-3.21-1.57-4.8v0l.82-1.57a.78.78,0,0,1,.12-.57c2.54.13,5.61.2,6.2-2.64.43-2-1-4.46-1.67-6.69a18.68,18.68,0,0,0-.86-2l0-1.4c3.15-.84,5.51-2.31,5.28-6.11-.21-3.47-2.63-4.15-5.38-4.5l0-2c.19-.45.24-1.08.58-1.32,2.31-1.66,3.15-4,2.25-6.5-1.08-3-3.87-3-6.55-2.86-.23-.74-.46-1.47-.7-2.21a8.09,8.09,0,0,1,.44-1.42c2.56-5,.83-8-4.84-8.38a21.68,21.68,0,0,1-3.59-.83l-.15-.13c.9-3.17.93-6.47-2.32-8-1.55-.73-4,.45-6,.76l-1.61-1.71c.07-.44.15-.88.22-1.32.22-.24.45-.48.67-.73,5.09-.48,6.6-3.52,3.85-7.79-1.3-2-1.32-3.65.56-5.58,2.75-2.81,1.94-6.3-1.11-8.54a4.3,4.3,0,0,1-1.24-3.79c2.06-6.49.68-8.54-6.41-8.87-.11-.4-.21-.81-.31-1.21a10.2,10.2,0,0,1,.14-1.11c1.47-6.56-.28-8.51-6.67-7.44a10.43,10.43,0,0,1-1.48,0l-.86-.76-2.27-7.48a45.28,45.28,0,0,1-2.51-5.27c-.43-1.26-1-3.18-.34-4,4.47-6.07,4.49-6.33-2-9.87a8.91,8.91,0,0,1-1.4-1.15l-.58-1.4c1.92-1.67,3.87-3.47,2.82-6.29-1-2.59-3-3.8-5.92-3.58a6.37,6.37,0,0,1-2.12-.65l-.67-.77a31.59,31.59,0,0,0,.71-4.39c.12-3.75-2.57-6-5.91-5-1.07.32-2.09.76-3.14,1.15l-.72-.65c-2.92-9.68-3.11-9.78-11.3-6l0,0a13.42,13.42,0,0,1-2.18-2.64c-2.21-4.84-5.14-5.52-9.12-1.85-1.76,1.62-3,2-5,0-1.17-1.2-3.75-2.45-4.89-1.93-1.79.82-2.91,3.13-4.31,4.8-2.22.19-2.35-1.23-2.23-2.87.45-6.45.44-6.43-5.87-6.86-.54,0-1-.57-1.56-.88l-.76-.71a4.77,4.77,0,0,1,.07-1.47c.79-2.1,1-3.92-1-5.67s-3.66-2.23-5.9-.73c-.55.37-1.42.24-2.14.33-.15-.47-.31-.94-.46-1.41-1.93-6.11-3.77-6.84-9.53-4.25a3.78,3.78,0,0,1-3.43-.87c-4.33-4.85-4.66-4.89-9.75-1.17-1.51,1.1-3.1,2.82-5.22.06-1-1.3-3.57-1.39-5.43-2a14.16,14.16,0,0,0-2.79-1.43,32.61,32.61,0,0,0-4.21-.63v.06c-.17-2.18.24-4.64-.66-6.45-1.55-3.13-3.85-3-8.93-.51l-1.43-.84c-2.21-7.57-2.93-7.85-10.12-4.79-1.45.61-3.22,1.22-4.23-1.31a4.87,4.87,0,0,0-8.78-.67c-1.81,3.13-3.39,2.79-5.9.88a6.91,6.91,0,0,0-4.59-.85c-4.05.5-2.78,4.38-3.92,6.74a.48.48,0,0,1-.51.19,25.89,25.89,0,0,1-3.18-.78c-2.34-.88-4.51-1.06-6.27,1.11s-2.2,4.46-.56,6.91l-1.31,1c-8.26-.24-10.77,2.7-7.62,8.91l-3,.71c-2-6.4-3.22-6.73-9.38-3.59-1.12.57-3.56-.11-4.63-1.06-2-1.75-4.05-2.31-6-1.09-1.26.78-1.73,2.81-2.56,4.27l-4.49,0c-.46-.48-.85-1.29-1.39-1.41-5-1.14-6.09-.08-6.13,5.9Z" transform="translate(-768.32 -340.69)"/><path class="cls-2" d="M808.26,619.31l-.77-.73c.39-1,.84-2.05,1.17-3.1a4.85,4.85,0,0,0-5.8-6.14c-1,.23-1.87.61-2.8.92v0c.23-1.17.17-2.51.74-3.49,2.15-3.67.73-7.38-3.38-8.34l-2.75-.61c.22-.75.2-1.2.42-1.41,5.07-5,5-6.28-.71-10.17a2.24,2.24,0,0,1-.92-1.73c.11-.48,1-.8,1.55-1.18l3.48-2.36c3.31-3.83-2.12-6.06-2.15-8.06,3-1.67,5.43-2.43,7-4.06,2.17-2.27,0-4.56-1.07-6.71l1-1.49c2.55.88,5.57,2.2,7.3-.57,1.06-1.69.49-4.4.65-6.66l1.89-3.09c.52,3.52,2.45,4.57,5.77,3.38a9.71,9.71,0,0,1,2.18-.28c-3.18,2.26-3.09,5.22-2,8.57,1.72,5.54,3.2,11.16,4.89,16.71a122.21,122.21,0,0,0,15.26,31.68c2.32,3.52,5.43,6.53,8.18,9.77-1.67,2-3,4.09-1,6.64l-3.24.08a4.72,4.72,0,0,0-5.23-4.31c-2.85.15-4.68,2.12-5.08,5.12l-2-.09-.77-1.56c-1-1.41-1.73-3.71-3-4-1.56-.38-3.56.77-5.28,1.48a11.69,11.69,0,0,0-2.48,1.85l-1.26-.9c.85-2.54.75-4.81-1.7-6.5s-4.39-.79-6.4.73A5.94,5.94,0,0,1,808.26,619.31Z" transform="translate(-768.32 -340.69)"/><path class="cls-2" d="M1047,683.14l-.91.93c-.72-.17-1.44-.31-2.15-.51-4.88-1.41-7.41.68-6.91,5.7.09,1,.11,1.94.17,2.9l-.11.1a7.64,7.64,0,0,1-2.14-.54c-5.39-3.17-7.37-2.3-9.2,3.85-.21.73-1.44,1.16-2.2,1.72a1.17,1.17,0,0,0-.23-.7c-1.49-1.22-2.9-3.27-4.49-3.41s-3.16,1.72-4.66,2.82a18.45,18.45,0,0,0-2.12,2.12,17,17,0,0,1-1.39-2.34c-1.15-2.84-3.77-4.32-6.17-3.38-1.73.69-5.64-.87-6.46-2.58-3.32-3.05-5.18-2.88-8.16.73l-1.61-2.1c2.17-6.59.67-8.64-6.09-8.33-.36,0-.73,0-1.1,0L980,678.62q1.2-3,2.41-6.07c.92.32,2,1.08,2.75.87,8.53-2.21,17.11-4.28,25.49-7,13-4.19,24.46-11.52,35.48-19.47a9.06,9.06,0,0,0,1.65-2.35l6.46,1,.12,2.72c-3.12,1.33-5,3.77-3.59,6.93.66,1.5,3.3,2.12,5,3.15,0,1.11.07,2.22.11,3.33-3-.87-5.29.09-6.43,2.84-1.06,2.54,0,4.57,2.6,5.68l.71.64.13.08a13.92,13.92,0,0,1-2.45,2.24,11.45,11.45,0,0,1-3,.77,6.71,6.71,0,0,0-1.48.92C1043.12,678.07,1045.87,680.52,1047,683.14Z" transform="translate(-768.32 -340.69)"/><path class="cls-2" d="M1123.43,491c-.07.44-.15.88-.22,1.32a18.17,18.17,0,0,1-2.2.2c-2.54-.05-4.53.54-5.44,3.34s.2,4.71,2.54,6.14l-2.28,1c-2.73-.43-5.88-1.67-7.57,1.49-.88,1.66-.49,4-.68,6.05l-1.3.84-5.45-2.37c-.16-2.1,0-4.28-.55-6.28-1.9-6.92-3.92-13.82-6.12-20.65-4.58-14.25-12.39-26.77-21.18-38.72l.75-5.43,2.25-.31c1.24,2.93,3.25,4.42,6.59,3.84,3.12-.54,3-3.14,3.58-5.28l2.64.12c.33,2.65.81,5.21,4.06,5.84,2.72.52,4.49-.72,5.68-3.05q1.48,2.34,3,4.68c.48,2.68,2.46,3.17,4.63,2.87a24.22,24.22,0,0,0,4.43-1.47l.86.76c-1.89,6-.74,10.08,7.64,8.46a1,1,0,0,1,.37.07l.3,1.21a4,4,0,0,1-.35,1.06c-3.32,5-2.61,7,3,8.78,2.39.74,2,1.81.45,3.34-3.22,3.09-2.66,6.64,1.14,8.65.58.3,1.45,1,1.38,1.34a3.75,3.75,0,0,1-1.32,1.93,12.34,12.34,0,0,1-2.23,1.23l-.7.73,0,0c-2,3.91-1.6,5.33,2.21,7.47h0Z" transform="translate(-768.32 -340.69)"/><path class="cls-2" d="M1104.37,619.22l-1.32.28c-2.06-2.16-4.06-4.49-7.49-2.43l-3,5.12-2.27.12c-.68-2.79-2.29-5.38-5.17-4.91-2,.32-3.64,2.75-5.43,4.24l-2.22-.25c-.27-1.81-.53-3.61-.8-5.42,1-1.7,1.87-3.48,3-5.08,11.4-15.94,17.52-34.06,21.48-53,.57-2.69,2.74-6.18-.41-9l6.21-2.4,2,.85c-1.24,2.79-1.15,5.47,1.37,7.41,2.25,1.73,4.45.54,6.46-.87l2.63,1.77c-2.23,1.3-3.63,3.12-2.76,5.76s2.54,3.66,5.41,3.35c.72-.07,1.64,1.72,2.46,2.65-4,3.81-4.06,4.32.1,8,1.8,1.6,2.3,2.81.13,4.79-2.6,2.36-2,5.95.7,8.36a12.7,12.7,0,0,1,1.67,2.48c-7.38,1.69-8.6,4.73-4.75,10.32a2.78,2.78,0,0,1,.25.7,1.4,1.4,0,0,0-.19.62c-.49,0-1,.14-1.48.15-6.55.07-7.77,1.66-6.24,8,.12.51-.31,1.15-.49,1.73h0c-1-.28-2.13-.49-3.14-.86-3.62-1.33-6.44.45-6.62,4.23C1104.48,617,1104.43,618.12,1104.37,619.22Z" transform="translate(-768.32 -340.69)"/><path class="cls-3" d="M791.63,473.78l.13-.75c1.3-.26,2.81-.19,3.86-.85,1.33-.85,3.31-2.4,3.18-3.43-.25-2.16-1.7-4.18-2.66-6.26l.84-1.57c2.64.13,6,1.7,7.48-1.33,1.09-2.21.61-5.2.86-8.1.61.21,1.18.36,1.72.6,4.76,2.15,7.56.46,8-4.74a15.32,15.32,0,0,1,.76-2.82h0c2.67,1.85,4.94,4.88,8.86,2.94.8-.4,1.62-.76,2.39-1.19,1-.56,1.94-1.17,2.9-1.76,1.65,2.12,4,3,6.17,1.65,1.45-.91,2.1-3.11,3.11-4.74l2.91,1.12,1.57,6.28c-.56.25-1.4.33-1.65.76-4,6.8-8.36,13.48-11.92,20.53a93.94,93.94,0,0,0-6.93,17.64c-2.42,8.92-4,18.08-5.87,27.14l-4.73,3.23a4.2,4.2,0,0,1-.62.08l-2.13-1.06c1.3-2.37,2.54-4.82-.17-7-2.46-2-5-1.68-7.35.32l-1.56-2.12c3.11-3.52,3.08-5.54-.13-8.28l-2.06-.66-1.61,0-3-1.68c8.61-6.14,1.43-8.82-3.33-11.81,7.3-3.93,7.56-6.75,1.7-11.3A4.26,4.26,0,0,1,791.63,473.78Z" transform="translate(-768.32 -340.69)"/><path class="cls-3" d="M914,699.54l-.75.28c-3.81-5.34-6.8-6-9.88-2.08a14.72,14.72,0,0,1-2,1.81,11.31,11.31,0,0,1-1.48-2.63c-1.06-4.29-3.93-5.5-7.74-3.23a24.37,24.37,0,0,1-3.62,1.44h0c0-.78,0-1.56,0-2.33,0-1,0-2,0-3h0c-1.18-1.21-2.22-3.19-3.56-3.42-1.72-.3-3.68.82-5.54,1.33l-1-1.58,2.5-5.32-.8-2.21,0,0-.77-.78,0,0-.87-.75a1,1,0,0,1-.62-.08l-2.5-2.22,1.05-.09c-.39-2.83-.66-5.69-1.23-8.48a50.66,50.66,0,0,0-1.82-5.68c1.52-4.72.86-6.19-3.74-8.34l.69-2.13,5.84-1.74c2.53,1.91,5,4,7.61,5.7a113.85,113.85,0,0,0,30.4,14.47c9.22,2.73,18.39,5.84,28.22,5.56.77,1.85,1.53,3.71,2.3,5.57-.07.65-.13,1.3-.2,2-2.76-1.8-5.68-2.16-7.47.92-1.4,2.41-1.48,5.31,1.6,7.09L936.23,692c-1.23-2.69-3.66-3.89-6-2.68-1.58.8-2.36,3.29-3.35,5.1a16.15,16.15,0,0,0-.94,3c-4.82-4.29-7.07-4.48-10-1.08A18.59,18.59,0,0,0,914,699.54Z" transform="translate(-768.32 -340.69)"/><path class="cls-4" d="M940.51,350.11a.48.48,0,0,0,.51-.19,10.2,10.2,0,0,1,1.23.77c4.18,3.74,7.6,2.79,9.39-2.56.22-.68,1.14-1.76,1.43-1.67a4.54,4.54,0,0,1,2.08,1.61c2.83,3.84,6.3,3.84,9.1.05a9.91,9.91,0,0,1,2.38-1.73,11,11,0,0,1,1.3,2.33c1.13,4.26,5.18,5.52,8.6,2.63.63-.53,1.35-1,2-1.43l1.43.84c-1.65,6.3,2.49,10.53,8.86,6.88.17-.1.48.05.73.08v-.06q-.24,4.05-.5,8.09h0l-1.5,0c-3.82.3-5,2.53-4.39,6l-1.62,3c-2.56-1.07-5.11-1.58-7.12.94s-1,4.88.63,7.14L974,385c-5.65.12-6.22.57-6.9,5.47-1.17-.49-2.32-1.36-3.51-1.41-4.22-.17-8.48.16-12.68-.14-2.62-.19-3.83.81-4.45,3.09-.17-5.27-.92-6.16-5.41-6.41l-2.9-2.5c1.43-2,2.31-4.08.59-6.37-1.86-2.47-4.17-2.29-6.68-1.18a5,5,0,0,1-1.46.18l-1-1.75-.57-7.52c.47-1.2,1.33-2.4,1.32-3.6,0-1.51-.74-3-1.16-4.53l1.32-1c5.81,3.29,8.79,1.63,9.06-5A7.14,7.14,0,0,1,940.51,350.11Z" transform="translate(-768.32 -340.69)"/><path class="cls-4" d="M870.47,650.11l-.69,2.13c-2.44.89-5,1.71-5.15,4.92-.1,3,1.94,4.57,4.42,5.67l.72,2.22c-2.28,1-4,2.42-3.79,5.22-4.07.39-6.49,2.46-6.75,6.71l-2.87-.12c.17-2.76-.65-5-3.48-5.92s-4.79.21-6.18,2.78a2.48,2.48,0,0,1-2,.85c-.41,0-1.09-1.07-1-1.6.26-2.94-.49-5.23-3.54-6.2s-4.7.85-6.35,2.83l-2.08-.84c2.08-9.36.94-10.6-8.33-9l0,0a27.45,27.45,0,0,0,.76-3.53c.17-2,.84-4.34,0-5.83-.72-1.31-3.17-1.76-4.93-2.34a6.71,6.71,0,0,0-2.55.25c-.21-.89-.41-1.77-.62-2.66,2.35-1,5.05-1.56,5-5s-1.93-4.84-5-5.45c-.43-.08-.91-1-1-1.58a1.79,1.79,0,0,1,.87-1.36c1.91-1,3.89-1.84,5.84-2.74,3.52,3.22,5.51,2.79,9-1.91l2,.09c1.21,2.56,2.58,4.92,6,4.42,3-.44,4.06-2.5,4.27-5.23l3.25-.08,5.45,2.26a36,36,0,0,1,4.75,3.11c3.77,3.4,7.38,7,11,10.48C866.6,645.9,868,648.21,870.47,650.11Z" transform="translate(-768.32 -340.69)"/><path class="cls-4" d="M944.64,681.62c.07-.65.13-1.3.2-2,3.49-.53,7.49-.34,7.68-5.5.68.47,1.37,1.36,2,1.34,6-.13,12-.42,18.05-.66,1.34,3.47,4.14,4.08,7.41,3.77l1.08,1.49c-.32.79-.7,1.56-1,2.37-1.44,4.55,1.37,7.59,6,6.54.71-.16,1.4-.38,2.11-.57l1.61,2.1.93,5.27c-2,3.28-2.43,6.56,0,9.84a.64.64,0,0,0-.32.6l-.74.82h0a5,5,0,0,1-1.71-.53c-2-1.66-4.37-2.2-6-.39-1.28,1.39-1.48,3.79-2.11,5.77-.27.87-.4,1.79-.59,2.69l-.72.31c-.54-.47-1-1.15-1.63-1.39-1.94-.74-4.09-2-5.87-1.7-1.3.26-2.22,2.76-3.16,4.34-.33.56-.22,1.37-.44,3l-2.92-2.26c-1.57-1.22-3.13-3.35-4.74-3.39s-3.32,2-4.94,3.15a22.25,22.25,0,0,0-1.9,1.74,24.77,24.77,0,0,0-1.4-2.46c-1.1-1.52-2-3.75-3.5-4.23s-3.61.65-5.36,1.32c-.71.28-1.17,1.21-1.74,1.84l-.81-.25a19,19,0,0,0-.6-3.56c-.61-1.77-1.06-4-2.38-5-1.14-.83-3.4-.28-5.14-.1a7,7,0,0,0-2.27,1.1h0l-.77-.72-.73-.83,3-6.57c4.35-.87,5.59-2.39,5-6.94l2.54-2.41c2.06-.36,4.66-.07,6.06-1.22C947.05,686.57,946.09,683.87,944.64,681.62Z" transform="translate(-768.32 -340.69)"/><path class="cls-4" d="M842.11,442.55l-2.91-1.12a4.46,4.46,0,0,0-4.74-4.34c-2.8,0-4.49,1.74-5.25,4.39l-2.84,0-4.49-3.06c-1.09-3.45-2.19-6.89-6.85-6.7l.06-3c2.69,0,5.33-.67,5.67-3.6.2-1.77-1-3.76-1.82-5.56a11.67,11.67,0,0,0-1.84-2.31c1-.41,2-.75,3-1.25,1.54-.81,3.89-1.42,4.34-2.67.59-1.67-.22-3.89-.62-5.83a7,7,0,0,0-1.3-2.07h0c.88-.29,1.82-.93,2.63-.8,7,1.14,8.75-.83,6.9-7.89a3.55,3.55,0,0,1,.09-1.11l1.59-1c1.87,2.26,4.1,3.5,7.08,2.39s3-3.52,2.85-6.09c0-.6.6-1.23.93-1.85h1.9a4.52,4.52,0,0,0,4.78,4.3c2.76.08,4.35-1.45,5-4.1a3.46,3.46,0,0,1,1.34-1.81,1.69,1.69,0,0,1,1.56.53c1.09,2,2,4.1,3,6.16-3.13,3.7-2.75,5.71,1.57,8.4,0,1,0,1.92.05,2.87-2.58,1.06-4.8,2.55-4.31,5.74s2.85,4.14,5.68,4.39c.21.7.41,1.39.61,2.09-2.47,2-3.95,4.38-2.67,7.7l-13.9,14.68C846.21,439,843.87,440,842.11,442.55Z" transform="translate(-768.32 -340.69)"/><path class="cls-4" d="M1119.48,555.7l-2.62-1.77c1.38-2.69,1.5-5.23-1.1-7.26-2.41-1.87-4.61-.74-6.73.72l-2-.85-2.43-6.75c-.46-.58-1.34-1.15-1.33-1.71.11-6.45.35-12.89.56-19.33l2.49-7.31,1.3-.84c2.59.83,5.15,2.72,7.83.27,2.53-2.32.94-4.92.44-7.44a1.51,1.51,0,0,1,0-.37l2.28-1,6.65-1.09c2.65,3.56,5.55,1.29,8.4.36l.15.13a11.19,11.19,0,0,1,0,3.37c-1.43,4.33.87,7.48,5.44,7.26.85,0,1.7,0,2.55,0,.24.74.47,1.47.7,2.21-2.64,1.08-3.84,3.39-2.84,5.71.73,1.7,3,2.77,4.62,4a9.61,9.61,0,0,0,1.94.92l0,2a4.88,4.88,0,0,0-4.76,4.86c-.15,3.12,2,4.88,4.86,5.75,0,.47,0,.93,0,1.4-.43.42-.84,1.2-1.28,1.22-2.73.12-4.86.92-5.5,3.93s1,4.66,3.11,6.19a.78.78,0,0,0-.12.57c-.27.53-.54,1.05-.82,1.57v0a5.54,5.54,0,0,0-1.46-.06c-1.91.44-4.19.45-5.61,1.55-1.91,1.47-1.75,3.84-.45,6,.37.62.18,1.57.25,2.38l-.81.87-6.57-2.4C1125.71,556.09,1124.5,555.15,1119.48,555.7Z" transform="translate(-768.32 -340.69)"/><path class="cls-4" d="M800.75,508.35l1.56,2.13c-1,2.46-1.45,5.34,1,6.67,1.67.9,4.28.06,6.48,0l2.13,1.06.87,4.32-.05,0,.63.82.08.09c.15.59.19,1.6.49,1.69,3,.89,2.54,3.25,2.53,5.46,0,4.85,0,9.71,0,14.56l-3.38,5.26-1.89,3.08c-4.4-2.15-7.92-1.33-8.61,2.26-.3,1.56.41,3.31.66,5l-1,1.49-8.14,1.35-.63-.53a1.47,1.47,0,0,0-.34-.64c-2.75-2.67-4.89.79-7.39.73l-1.47-1.49c2.13-2,3.16-4.24,1.7-7-1.3-2.44-3.52-2.74-6.1-2.42-1,.11-2-.78-3-1.22l0,0c1.83-2.26,4.91-4,3.2-7.73-1.25-2.72-3.48-3.56-6.25-3.49a3.47,3.47,0,0,0-.16-.71c.93-.94,2.19-1.72,2.71-2.85.86-1.88,2.09-4.24,1.58-5.92-.43-1.45-3.08-2.23-4.75-3.31l-.18-1.44a17.93,17.93,0,0,0,3.29-1.61c1.69-1.29,3.73-2.56,4.57-4.33.44-1-1.23-3-2.12-4.42a8.26,8.26,0,0,0-1.94-1.65l.71-1.47c.69-.12,1.44-.49,2-.31,2.56.78,4.75.29,6.23-1.91,1.87-2.76.39-5.16-1.23-7.45l1.29-1.4,7.16,2.31.89,2.92C795.37,509.55,798,509.24,800.75,508.35Z" transform="translate(-768.32 -340.69)"/><path class="cls-4" d="M1077.5,621.39l2.22.25c.76,2.7,1.67,5.41,5,5.65s4.56-2.38,5.59-5l2.27-.12.85.9.56.83,0,0,.79.77h0c1.66,1.3,3.79,2,4.15,4.68.14,1,1.9,1.75,2.9,2.63.72.64,1.42,1.32,2.13,2a12.16,12.16,0,0,1-2.1,1.6c-4.17,1.93-4.8,5.76-1.49,8.94a10.84,10.84,0,0,1,1.43,2.24,12.57,12.57,0,0,1-2.73,1.19c-4.43.76-6.1,4.4-3.85,8.31a8.9,8.9,0,0,1,.55,2.9.46.46,0,0,0-.31.42,6.43,6.43,0,0,0-1.44-.13c-2.06.24-4.67-.11-6,1-1.16,1-.89,3.69-1.19,5.64a14.69,14.69,0,0,0-.06,2.1l-.11.06a16.22,16.22,0,0,1-3.21-.91c-3-1.55-6.19-.68-7.43,2.44a18.21,18.21,0,0,0-.63,4.36l-1.49.48a3.26,3.26,0,0,1-.6-.43c-4.76-5.18-6.82-4.95-10.35,1.08-.3.51-1.24,1.15-1.63,1a4.76,4.76,0,0,1-2.08-1.65c-1-1.34-1.74-2.82-2.6-4.24l0,0,.89-.75c2.62-3.28,2.18-5.52-1.53-7.83,0-1.11-.08-2.22-.11-3.33a4.75,4.75,0,0,0,3.86-5.47c-.21-2.8-2-3.71-4.48-3.91-.3,0-.56-.46-.84-.7l-.12-2.72,2.19-6.45c2.42-2.64,4.77-5.35,7.29-7.91,2.31-2.35,4.79-4.53,7.19-6.79C1074,625.25,1075.62,623.09,1077.5,621.39Z" transform="translate(-768.32 -340.69)"/><path class="cls-4" d="M1076,437.68l-2.25.31-3.84-3.14.81-.54s-.09-.24-.15-.24c-2-.13-4.6.54-5.79-.49-4.51-3.89-8.56-8.32-12.79-12.55.45-2.83-.31-5.13-2.94-6.59.3-.9.59-1.8.88-2.71,2.83-.33,4.7-1.91,4.95-4.71s-1.48-4.29-4.18-4.77c-.3-.05-.54-.48-.81-.73l0-2.54c1.2-1.26,2.38-2.55,3.62-3.77.75-.73,1.6-1.36,2.41-2l.85-.38.31,0,.25-.2c.72-.77,1.47-1.52,2.16-2.32s1.23-1.55,1.84-2.33a10.52,10.52,0,0,1,2,2.21c1.84,3.81,5.88,4.44,8.81,1.43.81-.83,2.12-1.17,3.2-1.74l0,0a9.18,9.18,0,0,1,.32,1.43c.36,5.76,3.53,7.61,8.62,5.08a9,9,0,0,1,2.36-.47l.72.65c-2,7.16.15,9.5,7.61,8.15a2.62,2.62,0,0,1,.73.07l.67.77c0,.48.11,1.14-.15,1.41-1.91,2-2.71,4.17-1.24,6.78s4.1,2.43,6.61,2.33c.19.46.39.93.58,1.4,0,.36,0,.85-.16,1.08-5.28,5.78-5.22,6,1.13,10.42a2.84,2.84,0,0,1,0,2.74,41.38,41.38,0,0,1-5.21,3.25c-3.29-3.54-5.68-3.16-9,1.42l-2.65-.12c-.68-2.65-2.27-4.48-5.1-4.36C1077.52,432,1076.58,434.79,1076,437.68Z" transform="translate(-768.32 -340.69)"/><path class="cls-5" d="M1095.72,659.12a8.9,8.9,0,0,0-.55-2.9c-2.25-3.91-.58-7.55,3.85-8.31a12.57,12.57,0,0,0,2.73-1.19,10.84,10.84,0,0,0-1.43-2.24c-3.31-3.18-2.68-7,1.49-8.94a12.16,12.16,0,0,0,2.1-1.6c-.71-.66-1.41-1.34-2.13-2-1-.88-2.76-1.64-2.9-2.63-.36-2.69-2.49-3.38-4.15-4.68,3.31.9,6.3,1,7.58-3.08l2.08.81c4.5,1.71,5.43,5.61,1.9,8.94-2.17,2-2.4,3.28.17,5.22a5,5,0,0,1-1,8.52c-2.89,1.28-4.07,2.48-1.7,5.5,2.19,2.8.2,6.64-3.66,7.64C1098.64,658.57,1097.17,658.82,1095.72,659.12Z" transform="translate(-768.32 -340.69)"/><path class="cls-5" d="M941,714.9c.57-.63,1-1.56,1.74-1.84,1.75-.67,3.87-1.81,5.36-1.32s2.4,2.71,3.5,4.23a24.77,24.77,0,0,1,1.4,2.46,22.25,22.25,0,0,1,1.9-1.74c1.62-1.17,3.31-3.18,4.94-3.15s3.17,2.17,4.74,3.39l2.92,2.26c.22-1.65.11-2.46.44-3,.94-1.58,1.86-4.08,3.16-4.34,1.78-.35,3.93,1,5.87,1.7.63.24,1.09.92,1.63,1.39-1.22,3-1.4,7-6.25,6.4a4.49,4.49,0,0,1-2.39-.8c-2.26-2-3.91-1.76-5.91.57-3.16,3.68-6,3.2-9-.53-.72-.89-3.29-1.27-4.39-.7C944.9,722.85,941.84,721.4,941,714.9Z" transform="translate(-768.32 -340.69)"/><path class="cls-5" d="M978.56,349.92c-.68.47-1.4.9-2,1.43-3.42,2.89-7.47,1.63-8.6-2.63a11,11,0,0,0-1.3-2.33,9.91,9.91,0,0,0-2.38,1.73c-2.8,3.79-6.27,3.79-9.1-.05a4.54,4.54,0,0,0-2.08-1.61c-.29-.09-1.21,1-1.43,1.67-1.79,5.35-5.21,6.3-9.39,2.56a10.2,10.2,0,0,0-1.23-.77c1.14-2.36-.13-6.24,3.92-6.74a6.91,6.91,0,0,1,4.59.85c2.51,1.91,4.09,2.25,5.9-.88a4.87,4.87,0,0,1,8.78.67c1,2.53,2.78,1.92,4.23,1.31C975.63,342.07,976.35,342.35,978.56,349.92Z" transform="translate(-768.32 -340.69)"/><path class="cls-6" d="M996.57,359.72c1.86.64,4.43.73,5.43,2,2.12,2.76,3.71,1,5.22-.06,5.09-3.72,5.42-3.68,9.75,1.17a3.78,3.78,0,0,0,3.43.87c5.76-2.59,7.6-1.86,9.53,4.25.15.47.31.94.46,1.41l-.11.12c-1.13.41-2.29.74-3.37,1.22-3.5,1.57-6.4.34-7.63-3.33-.26-.76-.47-1.55-.79-2.62a8.6,8.6,0,0,0-2.08,1.13c-3.91,4.13-5.93,4.07-9.3-.48-1.51-2-2.25-1.14-3.07.57-2.48,5.2-5.37,5.59-9,1.25Z" transform="translate(-768.32 -340.69)"/><path class="cls-6" d="M1122.7,602.09a2.78,2.78,0,0,0-.25-.7c-3.85-5.59-2.63-8.63,4.75-10.32a12.7,12.7,0,0,0-1.67-2.48c-2.72-2.41-3.3-6-.7-8.36,2.17-2,1.67-3.19-.13-4.79-4.16-3.66-4.15-4.17-.1-8l5.06.23c-.26.93-.47,1.67-.73,2.62l2.62.24a4.82,4.82,0,0,1-.51,1.77c-3,3.8-2.63,7.08.89,10.46.61.58,0,3.65-1,4.47-2.61,2.15-3.33,4.09-1.61,7.2,1.58,2.87.12,5.75-3,6.74C1125.12,601.57,1123.9,601.8,1122.7,602.09Z" transform="translate(-768.32 -340.69)"/><path class="cls-6" d="M1121.82,482.06a12.34,12.34,0,0,0,2.23-1.23,3.75,3.75,0,0,0,1.32-1.93c.07-.35-.8-1-1.38-1.34-3.8-2-4.36-5.56-1.14-8.65,1.59-1.53,1.94-2.6-.45-3.34-5.62-1.75-6.33-3.76-3-8.78a4,4,0,0,0,.35-1.06c7.1.33,8.48,2.38,6.42,8.87a4.3,4.3,0,0,0,1.24,3.79c3,2.24,3.86,5.73,1.11,8.54-1.88,1.93-1.86,3.56-.56,5.58,2.75,4.27,1.24,7.31-3.85,7.79h-.8c-.74-2.49-1.47-5-2.21-7.47l0,0C1121.35,482.55,1121.58,482.3,1121.82,482.06Z" transform="translate(-768.32 -340.69)"/><path class="cls-6" d="M798.49,581,795,583.35c-.55.38-1.44.7-1.55,1.18a2.24,2.24,0,0,0,.92,1.73c5.68,3.89,5.78,5.18.71,10.17-.22.21-.2.66-.42,1.41l2.75.61c4.11,1,5.53,4.67,3.38,8.34-.57,1-.51,2.32-.74,3.49-6.32-1.62-7.69-4.21-6.34-10.67.26-1.25-1-3.37-2.13-4.24-2.75-2-3.3-3.8-1.21-6.78,1.6-2.29,3.25-4.78.34-7.92-2-2.13-.1-5.13,3.29-6.36C797.21,575.39,799.3,577.21,798.49,581Z" transform="translate(-768.32 -340.69)"/><path class="cls-7" d="M936.23,692c.6,4.55-.64,6.07-5,6.94l-3,6.57c-6.12,1.24-10.1-2.61-14.28-6a18.59,18.59,0,0,1,1.85-3.12c3-3.4,5.23-3.21,10,1.08a16.15,16.15,0,0,1,.94-3c1-1.81,1.77-4.3,3.35-5.1C932.57,688.15,935,689.35,936.23,692Z" transform="translate(-768.32 -340.69)"/><path class="cls-5" d="M833.76,669.6c1.65-2,3.43-3.76,6.35-2.83s3.8,3.26,3.54,6.2c0,.53.63,1.56,1,1.6a2.48,2.48,0,0,0,2-.85c1.39-2.57,3.38-3.67,6.18-2.78s3.65,3.16,3.48,5.92c-1.53,1.32-2.87,3.21-4.65,3.83-2.41.84-3.86-1.06-5.28-3a5.24,5.24,0,0,0-4.42-1.8C835.69,677.42,833.83,676.17,833.76,669.6Z" transform="translate(-768.32 -340.69)"/><path class="cls-5" d="M822.51,405.5a7,7,0,0,1,1.3,2.07c.4,1.94,1.21,4.16.62,5.83-.45,1.25-2.8,1.86-4.34,2.67-1,.5-2,.84-3,1.25a11.67,11.67,0,0,1,1.84,2.31c.78,1.8,2,3.79,1.82,5.56-.34,2.93-3,3.62-5.67,3.6-5.39-2.89-5.4-6.51-.33-10a4.82,4.82,0,0,0,1.32-4.13c-1.51-6.39-1.26-7,5-8.78C821.55,405.72,822,405.62,822.51,405.5Z" transform="translate(-768.32 -340.69)"/><path class="cls-5" d="M1075.25,389.87c-1.08.57-2.39.91-3.2,1.74-2.93,3-7,2.38-8.81-1.43a10.52,10.52,0,0,0-2-2.21c-.61.78-1.19,1.58-1.84,2.33s-1.44,1.55-2.16,2.32l-7.44-3.63c0-.24,0-.49,0-.74,1.4-1.67,2.52-4,4.31-4.8,1.14-.52,3.72.73,4.89,1.93,1.93,2,3.19,1.62,5,0,4-3.67,6.91-3,9.12,1.85A13.42,13.42,0,0,0,1075.25,389.87Z" transform="translate(-768.32 -340.69)"/><path class="cls-6" d="M888.51,695.13a24.37,24.37,0,0,0,3.62-1.44c3.81-2.27,6.68-1.06,7.74,3.23a11.31,11.31,0,0,0,1.48,2.63,14.72,14.72,0,0,0,2-1.81c3.08-3.87,6.07-3.26,9.88,2.08a41.69,41.69,0,0,1-2.4,3.74c-1.62,2.05-5.13,2-7.05-.43-2-2.57-4.07-2-6.82-1.4-1.77.39-4.27-.81-5.91-2C889.8,698.75,889.34,696.7,888.51,695.13Z" transform="translate(-768.32 -340.69)"/><path class="cls-6" d="M791.63,473.78a4.26,4.26,0,0,0,.67.88c5.86,4.55,5.6,7.37-1.7,11.3,4.76,3,11.94,5.67,3.33,11.81l-6.68-3a27.48,27.48,0,0,0,1.76-5.2c.24-1.84.45-4.1-.38-5.58-2.73-4.82-2.8-5.41,1.58-9Z" transform="translate(-768.32 -340.69)"/><path class="cls-7" d="M863.78,402.63c-4.32-2.69-4.7-4.7-1.57-8.4,1-1.23,4.32.3,3.61-3.06-.52-2.46-.87-4.95-1.29-7.43,2.12-3.39,6.13-1.46,8.86-3.13l.12.12.58,3.85.07,2.86L873,389.09l-4-1.88v3.31l-2.28,2c.87,1,1.61,1.76,2.33,2.57,2.22,2.55,1.72,5.47-1.35,6.83A16.34,16.34,0,0,1,863.78,402.63Z" transform="translate(-768.32 -340.69)"/><path class="cls-5" d="M1097.77,434.94a41.38,41.38,0,0,0,5.21-3.25,2.84,2.84,0,0,0,0-2.74c-6.35-4.4-6.41-4.64-1.13-10.42.2-.23.11-.72.16-1.08a8.91,8.91,0,0,0,1.4,1.15c6.51,3.54,6.49,3.8,2,9.87-.61.83-.09,2.75.34,4a45.28,45.28,0,0,0,2.51,5.27c-6.65,0-6.65,0-6.79,6.08q-1.5-2.34-3-4.68C1098.27,437.75,1098,436.35,1097.77,434.94Z" transform="translate(-768.32 -340.69)"/><path class="cls-5" d="M1056.6,670.37c.86,1.42,1.63,2.9,2.6,4.24a4.76,4.76,0,0,0,2.08,1.65c.39.14,1.33-.5,1.63-1,3.53-6,5.59-6.26,10.35-1.08a3.26,3.26,0,0,0,.6.43,27.37,27.37,0,0,1-1.07,3.54c-1.37,3-5.87,3.62-8.25,1.23-3.12-3.15-3.83-3.06-7,.18-.74.75-2.11.87-3.2,1.27,0-6.67,0-6.67-6.79-6.76a11.45,11.45,0,0,0,3-.77,13.92,13.92,0,0,0,2.45-2.24Z" transform="translate(-768.32 -340.69)"/><path class="cls-6" d="M896,366.47c.83-1.46,1.3-3.49,2.56-4.27,1.94-1.22,4-.66,6,1.09,1.07.95,3.51,1.63,4.63,1.06,6.16-3.14,7.37-2.81,9.38,3.59l-1.53,1.61c-2.84,3.44-5.9,3.08-8.37-1.08-1.1-1.85-2.07-3.54-3.73-.48-3.17,2-6.22,2.43-9-.72l0,0Z" transform="translate(-768.32 -340.69)"/><path class="cls-5" d="M821.82,629.53c-2,.9-3.93,1.76-5.84,2.74a1.79,1.79,0,0,0-.87,1.36c.06.58.54,1.5,1,1.58,3.06.61,5,2.07,5,5.45s-2.68,4-5,5c-5-.69-6.88-4.62-4.15-8,2.09-2.63,2.49-5.25-.15-7.94-.55-.56-.33-1.87-.47-2.84l6.74-.75,3,1.5Z" transform="translate(-768.32 -340.69)"/><path class="cls-7" d="M1131.55,570.55l-2.62-.24c.26-.95.47-1.69.73-2.62l-5.06-.23c-.82-.93-1.74-2.72-2.46-2.65-2.87.31-4.6-.86-5.41-3.35s.53-4.46,2.76-5.76c5-.55,6.22.39,7,5.1l6.57,2.4C1134.5,566.05,1133.35,568.37,1131.55,570.55Z" transform="translate(-768.32 -340.69)"/><path class="cls-5" d="M864.53,383.74c.42,2.48.77,5,1.29,7.43.71,3.36-2.6,1.83-3.61,3.06-1-2.06-1.91-4.16-3-6.16a1.69,1.69,0,0,0-1.56-.53,3.46,3.46,0,0,0-1.34,1.81c-.7,2.65-2.29,4.18-5,4.1a4.52,4.52,0,0,1-4.78-4.3c.95-1.74,1.49-4.06,2.94-5.07,1.79-1.25,4.14-1,5.92,1.07s3.56,2.31,5.52-.14C861.54,384.15,863.28,384.14,864.53,383.74Z" transform="translate(-768.32 -340.69)"/><path class="cls-8" d="M815.78,444.53a15.32,15.32,0,0,0-.76,2.82c-.42,5.2-3.22,6.89-8,4.74-.54-.24-1.11-.39-1.72-.6-.25,2.9.23,5.89-.86,8.1-1.5,3-4.84,1.46-7.48,1.33,0-.47,0-.93,0-1.4l6-1V452c1.15-2.22,2-4.7,3.56-6.58.89-1.06,2.94-1.42,4.51-1.56A19.72,19.72,0,0,1,815.78,444.53Z" transform="translate(-768.32 -340.69)"/><path class="cls-5" d="M979.31,714.61c.19-.9.32-1.82.59-2.69.63-2,.83-4.38,2.11-5.77,1.68-1.81,4.08-1.27,6,.39a5,5,0,0,0,1.71.53c0,.87,0,1.74,0,2.61-.06,4.77-2.12,6.43-6.84,5.52C981.74,715,980.52,714.81,979.31,714.61Z" transform="translate(-768.32 -340.69)"/><path class="cls-8" d="M798.49,581c.81-3.78-1.28-5.6-4.48-6.68l1.5-3.76c-.47-2.35-.93-4.69-1.4-7l8.14-1.35c1.11,2.15,3.24,4.44,1.07,6.71-1.55,1.63-4,2.39-7,4.06C796.37,574.93,801.8,577.16,798.49,581Z" transform="translate(-768.32 -340.69)"/><path class="cls-8" d="M917.05,369.55l1.53-1.61,3-.71c2-.54,4-1.14,6.11-1.57.37-.08.89.51,1.34.79l.57,7.52c-1.89.87-3.88,2.6-5.65,2.4-2.54-.28-4-2.47-3.92-5.44C920.09,368.71,918.74,368.53,917.05,369.55Z" transform="translate(-768.32 -340.69)"/><path class="cls-5" d="M816.66,648.3a6.71,6.71,0,0,1,2.55-.25c1.76.58,4.21,1,4.93,2.34.83,1.49.16,3.85,0,5.83a27.45,27.45,0,0,1-.76,3.53A45.35,45.35,0,0,1,818.3,658C814.84,656.32,814.49,653.93,816.66,648.3Z" transform="translate(-768.32 -340.69)"/><path class="cls-5" d="M1075.35,674.12a18.21,18.21,0,0,1,.63-4.36c1.24-3.12,4.4-4,7.43-2.44a16.22,16.22,0,0,0,3.21.91c-.2.59-.44,1.16-.59,1.76C1084.15,677.93,1082.12,678.72,1075.35,674.12Z" transform="translate(-768.32 -340.69)"/><path class="cls-5" d="M832.13,395.7a3.55,3.55,0,0,0-.09,1.11c1.85,7.06.1,9-6.9,7.89-.81-.13-1.75.51-2.63.8a30.2,30.2,0,0,0,.34-3.88c-.18-4.45,2.24-6.61,6.72-5.95A16.8,16.8,0,0,0,832.13,395.7Z" transform="translate(-768.32 -340.69)"/><path class="cls-5" d="M1133.9,562.33c-.07-.81.12-1.76-.25-2.38-1.3-2.19-1.46-4.56.45-6,1.42-1.1,3.7-1.11,5.61-1.55a5.54,5.54,0,0,1,1.46.06c.55,1.59,1.43,3.16,1.57,4.8.29,3.3-1.42,4.94-4.79,5.06C1136.6,562.33,1135.25,562.32,1133.9,562.33Z" transform="translate(-768.32 -340.69)"/><path class="cls-5" d="M1086.73,668.17a14.69,14.69,0,0,1,.06-2.1c.3-2,0-4.63,1.19-5.64,1.32-1.13,3.93-.78,6-1a6.43,6.43,0,0,1,1.44.13,26.23,26.23,0,0,1,.85,3.18c.59,4.21-1.76,6.6-6,6.08C1089.1,668.66,1087.92,668.38,1086.73,668.17Z" transform="translate(-768.32 -340.69)"/><path class="cls-5" d="M776.81,513.54a8.26,8.26,0,0,1,1.94,1.65c.89,1.43,2.56,3.47,2.12,4.42-.84,1.77-2.88,3-4.57,4.33a17.93,17.93,0,0,1-3.29,1.61,9.59,9.59,0,0,0-.68-2.46C769.13,517.76,770.58,514.62,776.81,513.54Z" transform="translate(-768.32 -340.69)"/><path class="cls-5" d="M773.19,527c1.67,1.08,4.32,1.86,4.75,3.31.51,1.68-.72,4-1.58,5.92-.52,1.13-1.78,1.91-2.71,2.85-1.55-1.52-3.38-2.84-4.59-4.59C767.08,531.6,769.32,527.76,773.19,527Z" transform="translate(-768.32 -340.69)"/><path class="cls-5" d="M823.35,659.73c9.27-1.57,10.41-.33,8.33,9-.12,0-.25,0-.37,0C823.88,669.64,822.38,667.94,823.35,659.73Z" transform="translate(-768.32 -340.69)"/><path class="cls-5" d="M989.58,357.72c-.25,0-.56-.18-.73-.08-6.37,3.65-10.51-.58-8.86-6.88,5.08-2.54,7.38-2.62,8.93.51C989.82,353.08,989.41,355.54,989.58,357.72Z" transform="translate(-768.32 -340.69)"/><path class="cls-5" d="M1086.5,395.89a9,9,0,0,0-2.36.47c-5.09,2.53-8.26.68-8.62-5.08a9.18,9.18,0,0,0-.32-1.43C1083.39,386.11,1083.58,386.21,1086.5,395.89Z" transform="translate(-768.32 -340.69)"/><path class="cls-5" d="M940.51,350.11a7.14,7.14,0,0,0-1,2.23c-.27,6.64-3.25,8.3-9.06,5-1.64-2.45-1.2-4.75.56-6.91s3.93-2,6.27-1.11A25.89,25.89,0,0,0,940.51,350.11Z" transform="translate(-768.32 -340.69)"/><path class="cls-5" d="M1095.56,404.76a2.62,2.62,0,0,0-.73-.07c-7.46,1.35-9.64-1-7.61-8.15,1-.39,2.07-.83,3.14-1.15,3.34-1,6,1.23,5.91,5A31.59,31.59,0,0,1,1095.56,404.76Z" transform="translate(-768.32 -340.69)"/><path class="cls-5" d="M1145.79,537.58c-2.87-.87-5-2.63-4.86-5.75a4.88,4.88,0,0,1,4.76-4.86c2.75.35,5.17,1,5.38,4.5C1151.3,535.27,1148.94,536.74,1145.79,537.58Z" transform="translate(-768.32 -340.69)"/><path class="cls-5" d="M1101.45,416.05c-2.51.1-5.08.37-6.61-2.33s-.67-4.77,1.24-6.78c.26-.27.11-.93.15-1.41a6.37,6.37,0,0,0,2.12.65c2.87-.22,5,1,5.92,3.58C1105.32,412.58,1103.37,414.38,1101.45,416.05Z" transform="translate(-768.32 -340.69)"/><path class="cls-5" d="M929.79,707.1a7,7,0,0,1,2.27-1.1c1.74-.18,4-.73,5.14.1,1.32,1,1.77,3.22,2.38,5a19,19,0,0,1,.6,3.56,5.86,5.86,0,0,0-1.11.05C931.23,716.34,929.79,715.16,929.79,707.1Z" transform="translate(-768.32 -340.69)"/><path class="cls-5" d="M776.84,551c1,.44,2.09,1.33,3,1.22,2.58-.32,4.8,0,6.1,2.42,1.46,2.73.43,5-1.7,7-6,1.59-8.3-1.41-7.47-6.67A24.65,24.65,0,0,0,776.84,551Z" transform="translate(-768.32 -340.69)"/><path class="cls-5" d="M1141.3,512.06c-.85,0-1.7,0-2.55,0-4.57.22-6.87-2.93-5.44-7.26a11.19,11.19,0,0,0,0-3.37,21.68,21.68,0,0,0,3.59.83c5.67.39,7.4,3.34,4.84,8.38A8.09,8.09,0,0,0,1141.3,512.06Z" transform="translate(-768.32 -340.69)"/><path class="cls-5" d="M773.81,539.78c2.77-.07,5,.77,6.25,3.49,1.71,3.75-1.37,5.47-3.2,7.73-3.46-.88-7-1.92-6-6.58C771.22,542.74,772.79,541.32,773.81,539.78Z" transform="translate(-768.32 -340.69)"/><path class="cls-6" d="M1049.8,388.25c0,.25,0,.5,0,.74l-3,.74c-.87-.76-1.67-2-2.65-2.19-4.73-.8-6.13-3.09-4.43-7.66a11.65,11.65,0,0,0,.38-2.15l.07-.09c.52.31,1,.85,1.56.88,6.31.43,6.32.41,5.87,6.86C1047.45,387,1047.58,388.44,1049.8,388.25Z" transform="translate(-768.32 -340.69)"/><path class="cls-5" d="M990.82,705.66c-2.43-3.28-2-6.56,0-9.84,2.41.63,4.81,2.35,7.22,0v.75a8.58,8.58,0,0,0,.23,1.84c.68,2,1.9,4.07-.21,5.81S993.57,707,990.82,705.66Z" transform="translate(-768.32 -340.69)"/><path class="cls-5" d="M844.58,389.16c-.33.62-1,1.25-.93,1.85.1,2.57.07,5-2.85,6.09s-5.21-.13-7.08-2.39c.21-7.2,2.21-8.49,9-5.85A8.52,8.52,0,0,0,844.58,389.16Z" transform="translate(-768.32 -340.69)"/><path class="cls-5" d="M1142.1,550.32c-2.09-1.53-3.73-3.27-3.11-6.19s2.77-3.81,5.5-3.93c.44,0,.85-.8,1.28-1.22a18.68,18.68,0,0,1,.86,2c.65,2.23,2.1,4.66,1.67,6.69C1147.71,550.52,1144.64,550.45,1142.1,550.32Z" transform="translate(-768.32 -340.69)"/><path class="cls-5" d="M784.55,502.4c1.62,2.29,3.1,4.69,1.23,7.45-1.48,2.2-3.67,2.69-6.23,1.91-.59-.18-1.34.19-2,.31-.39-1.71-1.36-3.54-1.06-5.12C777.07,503.71,778.24,501.55,784.55,502.4Z" transform="translate(-768.32 -340.69)"/><path class="cls-5" d="M859.23,677c.26-4.25,2.68-6.32,6.75-6.71l4.54,5.31C866.8,682.28,863.6,682.68,859.23,677Z" transform="translate(-768.32 -340.69)"/><path class="cls-5" d="M1145.72,525a9.61,9.61,0,0,1-1.94-.92c-1.63-1.28-3.89-2.35-4.62-4-1-2.32.2-4.63,2.84-5.71,2.68-.17,5.47-.17,6.55,2.86.9,2.54.06,4.84-2.25,6.5C1146,523.87,1145.91,524.5,1145.72,525Z" transform="translate(-768.32 -340.69)"/><path class="cls-5" d="M815,431.76c4.66-.19,5.76,3.25,6.85,6.7-3.26-.21-4.48,2-5.38,4.57-1.74-1.53-4.26-2.75-5-4.67C810.28,435.44,811.71,432.82,815,431.76Z" transform="translate(-768.32 -340.69)"/><path class="cls-8" d="M1124.76,500.94l-6.65,1.09c-2.34-1.43-3.48-3.24-2.54-6.14s2.9-3.39,5.44-3.34a18.17,18.17,0,0,0,2.2-.2l1.61,1.71Z" transform="translate(-768.32 -340.69)"/><path class="cls-5" d="M1124.76,500.94l.06-6.88c2-.31,4.47-1.49,6-.76,3.25,1.53,3.22,4.83,2.32,8C1130.31,502.23,1127.41,504.5,1124.76,500.94Z" transform="translate(-768.32 -340.69)"/><path class="cls-5" d="M794.11,563.51c.47,2.35.93,4.69,1.4,7a28.16,28.16,0,0,1-3.59.72c-4.45.35-6.09-1.19-6.15-5.61,0-.86,0-1.72,0-2.59,2.5.06,4.64-3.4,7.39-.73l-.19.3.53.34Z" transform="translate(-768.32 -340.69)"/><path class="cls-6" d="M1114.3,612.56c.18-.58.61-1.22.49-1.73-1.53-6.31-.31-7.9,6.24-8,.49,0,1-.1,1.48-.15,0,.12,0,.25,0,.37C1124,611.09,1122.73,612.57,1114.3,612.56Z" transform="translate(-768.32 -340.69)"/><path class="cls-6" d="M796.14,462.49c1,2.08,2.41,4.1,2.66,6.26.13,1-1.85,2.58-3.18,3.43-1,.66-2.56.59-3.86.85-.74-1.94-1.94-3.83-2.12-5.82C789.37,464.22,791.92,462.58,796.14,462.49Z" transform="translate(-768.32 -340.69)"/><path class="cls-6" d="M1119.44,454.52a1,1,0,0,0-.37-.07c-8.38,1.62-9.53-2.44-7.64-8.46a10.43,10.43,0,0,0,1.48,0c6.39-1.07,8.14.88,6.67,7.44A10.2,10.2,0,0,0,1119.44,454.52Z" transform="translate(-768.32 -340.69)"/><path class="cls-6" d="M1030.39,369.39c.72-.09,1.59,0,2.14-.33,2.24-1.5,4-1,5.9.73s1.81,3.57,1,5.67a4.77,4.77,0,0,0-.07,1.47l-.09.07c-6.81,1.64-8.92.22-8.93-6,0-.49,0-1-.08-1.49Z" transform="translate(-768.32 -340.69)"/><path class="cls-8" d="M1037.22,692.16c-.06-1-.08-1.93-.17-2.9-.5-5,2-7.11,6.91-5.7.71.2,1.43.34,2.15.51l-.06,3.37c-.08,4-1.46,5.21-5.48,4.75A28.76,28.76,0,0,0,1037.22,692.16Z" transform="translate(-768.32 -340.69)"/><path class="cls-8" d="M818,626.07l-6.74.75-3-7.51a5.94,5.94,0,0,0,1.69-.6c2-1.52,4-2.36,6.4-.73s2.55,4,1.7,6.5c0,.29,0,.57,0,.86S818,625.82,818,626.07Z" transform="translate(-768.32 -340.69)"/><path class="cls-8" d="M878,677.05a1,1,0,0,0,.62.08l.87.75,0,0,.77.78,0,0,.8,2.21-2.5,5.32c-7.25-.16-7.91-1.12-6.35-9.26Z" transform="translate(-768.32 -340.69)"/><path class="cls-5" d="M929,366.45c-.45-.28-1-.87-1.34-.79-2.06.43-4.08,1-6.11,1.57-3.15-6.21-.64-9.15,7.62-8.91.41,1.51,1.14,3,1.15,4.53C930.35,364.05,929.49,365.25,929,366.45Z" transform="translate(-768.32 -340.69)"/><path class="cls-8" d="M816.5,443c.9-2.58,2.12-4.78,5.38-4.57l4.49,3.06-1.74,6c-3.92,1.94-6.19-1.09-8.86-2.94C816,444,816.26,443.53,816.5,443Z" transform="translate(-768.32 -340.69)"/><path class="cls-6" d="M1047.52,674.06c6.77.09,6.77.09,6.79,6.76l-7.29,2.32c-1.15-2.62-3.9-5.07-1-8.16A6.71,6.71,0,0,1,1047.52,674.06Z" transform="translate(-768.32 -340.69)"/><path class="cls-8" d="M1104.37,619.22c.06-1.1.11-2.2.17-3.3.18-3.78,3-5.56,6.62-4.23,1,.37,2.09.58,3.14.86-.24.94-.55,1.88-.7,2.84-.77,5-2,5.76-6.72,4.35C1106.06,619.49,1105.21,619.39,1104.37,619.22Z" transform="translate(-768.32 -340.69)"/><path class="cls-8" d="M870.52,675.58,866,670.27c-.19-2.8,1.51-4.22,3.79-5.22,5,.88,7.11,4.57,4.55,7.88-.73,1-1.59,1.79-2.39,2.68Z" transform="translate(-768.32 -340.69)"/><path class="cls-6" d="M1101.51,443.83c.14-6.06.14-6.06,6.79-6.08q1.14,3.75,2.27,7.48a24.22,24.22,0,0,1-4.43,1.47C1104,447,1102,446.51,1101.51,443.83Z" transform="translate(-768.32 -340.69)"/><path class="cls-8" d="M998,696.6v-.75c0-2,0-4,0-6,.82,1.71,4.73,3.27,6.46,2.58,2.4-.94,5,.54,6.17,3.38a17,17,0,0,0,1.39,2.34,18.45,18.45,0,0,1,2.12-2.12c1.5-1.1,3.2-3,4.66-2.82s3,2.19,4.49,3.41c-5-3-8.23-1.89-8.79,3h-3.76c-.7-1.29-1.42-2.57-2.11-3.87-1.48-2.79-2.52-2.81-4.65-.46-.69.76-2,1-3,1.4Z" transform="translate(-768.32 -340.69)"/><path class="cls-6" d="M888.51,692.79c0,.77,0,1.55,0,2.33a11.29,11.29,0,0,0-1.84,0c-5.28,1-7-.51-7.12-6.07a33.11,33.11,0,0,1,9.06.72h0C888.54,690.79,888.53,691.79,888.51,692.79Z" transform="translate(-768.32 -340.69)"/><path class="cls-6" d="M1014.55,699.59c.56-4.89,3.82-6,8.79-3a1.17,1.17,0,0,1,.23.7c0,.76,0,1.53,0,2.29C1019.32,703.64,1016.66,703.64,1014.55,699.59Z" transform="translate(-768.32 -340.69)"/><path class="cls-9" d="M1102.31,621.57c-1.28,4.09-4.27,4-7.58,3.08h0c-.27-.25-.53-.51-.79-.77l0,0-.56-.83-.85-.9,3-5.12c1,.33,2.65.52,2.75,1,.52,2.64,2.49,1.81,4,2C1102.34,620.6,1102.32,621.08,1102.31,621.57Z" transform="translate(-768.32 -340.69)"/><path class="cls-5" d="M787.25,494.77l6.68,3,3,1.68c-3.57,1.11-2.85,4.15-3.06,6.78l-.89-2.92L785.84,501Z" transform="translate(-768.32 -340.69)"/><path class="cls-5" d="M996.57,359.72,995,367.25l-3,.66-3-2.16q.25-4,.5-8.09a32.61,32.61,0,0,1,4.21.63A14.16,14.16,0,0,1,996.57,359.72Z" transform="translate(-768.32 -340.69)"/><path class="cls-6" d="M873.53,378.5c.31-1.92,0-4.87,1.06-5.52,1.64-1,4.24-.4,6.43-.48a45.88,45.88,0,0,1-2.26,7c-.14.3-2.93-.67-4.49-1A3.65,3.65,0,0,0,873.53,378.5Z" transform="translate(-768.32 -340.69)"/><path class="cls-6" d="M1001,696.65c1-.45,2.35-.64,3-1.4,2.13-2.35,3.17-2.33,4.65.46.69,1.3,1.41,2.58,2.11,3.87C1006.69,703.42,1003.09,702.35,1001,696.65Z" transform="translate(-768.32 -340.69)"/><path class="cls-6" d="M1035.56,693.6c-.12,4.67-2.29,6.8-6.15,5.9-.53-.13-.91-.93-1.37-1.41C1028.05,691.21,1029.49,690.35,1035.56,693.6Z" transform="translate(-768.32 -340.69)"/><path class="cls-6" d="M884,371c0-6,1.11-7,6.13-5.9.54.12.93.93,1.39,1.41,0,5.92-.87,6.5-6.4,4.55A3.76,3.76,0,0,0,884,371Z" transform="translate(-768.32 -340.69)"/><path class="cls-2" d="M871.93,675.61c.8-.89,1.66-1.73,2.39-2.68,2.56-3.31.42-7-4.55-7.88l-.72-2.22,4.47-2.25a50.66,50.66,0,0,1,1.82,5.68c.57,2.79.84,5.65,1.23,8.48l-1.05.09,2.5,2.22-5.85-.17Z" transform="translate(-768.32 -340.69)"/><path class="cls-6" d="M803,452v6.49l-6,1C795,454.23,796.79,452,803,452Z" transform="translate(-768.32 -340.69)"/><path class="cls-6" d="M805.27,618.56c-4.11-.1-4.9-1.11-5.25-6.74l6.28-.94C805.88,614,805.57,616.28,805.27,618.56Z" transform="translate(-768.32 -340.69)"/><path class="cls-8" d="M1035.56,693.6c-6.07-3.25-7.51-2.39-7.52,4.49l-4.49,1.49c0-.76,0-1.53,0-2.29.76-.56,2-1,2.2-1.72,1.83-6.15,3.81-7,9.2-3.85a7.64,7.64,0,0,0,2.14.54Z" transform="translate(-768.32 -340.69)"/><path class="cls-8" d="M884,371a3.76,3.76,0,0,1,1.12.06c5.53,1.95,6.35,1.37,6.4-4.55l4.49,0-.06.83c-1,1-2.53,1.81-2.82,3-1,4-3.75,5.32-7.44,3.41a16.19,16.19,0,0,0-3.67-.93l-.28-.27Z" transform="translate(-768.32 -340.69)"/><path class="cls-8" d="M805.27,618.56c.3-2.28.61-4.55,1-7.68l-6.28.94c0-.52,0-1,0-1.56.93-.31,1.84-.69,2.8-.92a4.85,4.85,0,0,1,5.8,6.14c-.33,1-.78,2.07-1.17,3.1Z" transform="translate(-768.32 -340.69)"/><path class="cls-8" d="M873.53,378.5a3.65,3.65,0,0,1,.74,0c1.56.36,4.35,1.33,4.49,1a45.88,45.88,0,0,0,2.26-7l.73,0a3.45,3.45,0,0,0,.28.26c1.27,7.29-.33,9-7.42,7.94a5.89,5.89,0,0,0-1.1.06l-.12-.12C873.44,379.91,873.49,379.2,873.53,378.5Z" transform="translate(-768.32 -340.69)"/><path class="cls-8" d="M888.59,689.81a33.11,33.11,0,0,0-9.06-.72c0-.46,0-.92,0-1.37,1.86-.51,3.82-1.63,5.54-1.33C886.37,686.62,887.41,688.6,888.59,689.81Z" transform="translate(-768.32 -340.69)"/><path class="cls-8" d="M1102.35,620.11c-1.55-.21-3.52.62-4-2-.1-.5-1.79-.69-2.75-1,3.43-2.06,5.43.27,7.49,2.43Z" transform="translate(-768.32 -340.69)"/><path class="cls-5" d="M1141.16,552.46c.28-.52.55-1,.82-1.57C1141.71,551.42,1141.44,551.94,1141.16,552.46Z" transform="translate(-768.32 -340.69)"/><path class="cls-5" d="M929,706.38l.77.72Z" transform="translate(-768.32 -340.69)"/><path class="cls-5" d="M989.76,707.08l.74-.82Z" transform="translate(-768.32 -340.69)"/><path class="cls-8" d="M1123.29,490.3h.81c-.22.25-.45.49-.67.73C1123.38,490.79,1123.34,490.54,1123.29,490.3Z" transform="translate(-768.32 -340.69)"/><path class="cls-6" d="M1039.38,376.93l.76.71-.07.09-.78-.73Z" transform="translate(-768.32 -340.69)"/><path class="cls-10" d="M847.34,620.19c-2.75-3.25-5.86-6.26-8.18-9.78a122.21,122.21,0,0,1-15.26-31.68c-1.69-5.55-3.17-11.17-4.89-16.71-1-3.35-1.13-6.31,2-8.58l.83-.88c.16-1.35.32-2.71.47-4.06l2.52-3.31a5.56,5.56,0,0,1,.49,1.36c1.08,15.06,5.53,29.2,11.71,42.86,5.14,11.39,12.29,21.51,19.94,31.3l-1.93.87-1.83-1.48-2.3-.73h-1.37l-2.26.78Z" transform="translate(-768.32 -340.69)"/><path class="cls-7" d="M803.27,560.67c-.25-1.66-1-3.41-.66-5,.69-3.59,4.21-4.41,8.61-2.26-.16,2.26.41,5-.65,6.66C808.84,562.87,805.82,561.55,803.27,560.67Z" transform="translate(-768.32 -340.69)"/><path class="cls-7" d="M843.15,626.9c-.21,2.73-1.25,4.79-4.27,5.23-3.45.5-4.82-1.86-6-4.42.39-3,2.22-5,5.07-5.12A4.72,4.72,0,0,1,843.15,626.9Z" transform="translate(-768.32 -340.69)"/><path class="cls-7" d="M853.26,620.1l1.83,1.48c.16,3,.22,6-3.24,7.5l-5.45-2.26c-2.1-2.55-.73-4.62.94-6.64v0l2.26-.78H851Z" transform="translate(-768.32 -340.69)"/><path class="cls-7" d="M821.89,552.56l-.83.88a10.32,10.32,0,0,0-2.18.29c-3.32,1.19-5.25.14-5.77-3.38l3.38-5.25c2.59,0,5,.32,5.52,3.52Z" transform="translate(-768.32 -340.69)"/><path class="cls-9" d="M821.82,629.53c-.27-.65-.54-1.31-.8-2,3-5,3.78-5.17,8-1.82a3,3,0,0,0,1,.31l.77,1.56C827.33,632.32,825.34,632.75,821.82,629.53Z" transform="translate(-768.32 -340.69)"/><path class="cls-7" d="M830,626.06a3,3,0,0,1-1-.31c-4.2-3.35-5-3.18-8,1.82l-3-1.5c0-.25,0-.49,0-.73l1.28,0a11.69,11.69,0,0,1,2.48-1.85c1.72-.71,3.72-1.86,5.28-1.48C828.31,622.35,829.07,624.65,830,626.06Z" transform="translate(-768.32 -340.69)"/><path class="cls-5" d="M819.31,625.38l-1.28,0c0-.29,0-.57,0-.86Z" transform="translate(-768.32 -340.69)"/><path class="cls-10" d="M1047.79,644.63a9.06,9.06,0,0,1-1.65,2.35c-11,7.95-22.44,15.28-35.48,19.47-8.38,2.69-17,4.76-25.49,7-.79.21-1.83-.55-2.76-.87-1.29-3.29-4-3.39-6.89-3l-.06-2.69a26.61,26.61,0,0,1,3.25-.81c20.37-2.53,38.86-10,55.88-21.3,4.63-3.07,9.09-6.42,13.62-9.64l.85,1.61C1047.21,639.09,1046.44,641.69,1047.79,644.63Z" transform="translate(-768.32 -340.69)"/><path class="cls-7" d="M1047.79,644.63c-1.35-2.94-.58-5.54,1.27-8,2.89-.37,5.56-.13,7.38,2.56l-2.19,6.45Z" transform="translate(-768.32 -340.69)"/><path class="cls-7" d="M975.52,669.5c2.9-.34,5.6-.24,6.89,3l-2.4,6.07c-3.27.31-6.07-.3-7.41-3.77C972.24,672.34,973.57,670.75,975.52,669.5Z" transform="translate(-768.32 -340.69)"/><path class="cls-8" d="M1056.6,670.37l-3.65.68-.13-.08-.71-.64c-2.58-1.11-3.66-3.14-2.6-5.68,1.14-2.75,3.48-3.71,6.43-2.84,3.71,2.31,4.15,4.55,1.53,7.83l-.89.75Z" transform="translate(-768.32 -340.69)"/><path class="cls-8" d="M988.28,688.45c-.71.19-1.4.41-2.11.57-4.67,1.05-7.48-2-6-6.54.26-.81.64-1.58,1-2.37.37,0,.74,0,1.1,0C989,679.81,990.45,681.86,988.28,688.45Z" transform="translate(-768.32 -340.69)"/><path class="cls-8" d="M1054.37,648.4c.28.24.54.67.84.7,2.48.2,4.27,1.11,4.48,3.91a4.75,4.75,0,0,1-3.86,5.47c-1.75-1-4.39-1.65-5-3.15C1049.39,652.17,1051.25,649.73,1054.37,648.4Z" transform="translate(-768.32 -340.69)"/><path class="cls-6" d="M998.05,689.82c0,2,0,4,0,6-2.41,2.32-4.81.6-7.22,0l-.93-5.27C992.87,686.94,994.73,686.77,998.05,689.82Z" transform="translate(-768.32 -340.69)"/><path class="cls-5" d="M1052.11,670.33l.71.64Z" transform="translate(-768.32 -340.69)"/><path class="cls-10" d="M1073,443.42c8.79,11.95,16.6,24.47,21.18,38.72,2.2,6.83,4.22,13.73,6.12,20.65.54,2,.39,4.18.55,6.28l-3.79,3-3,2.27a61.83,61.83,0,0,0-.07-6.87c-.12-1-.94-1.92-1.45-2.87-.47-1.55-1-3.08-1.4-4.65-2.6-10.81-6.06-21.36-11.85-30.88-5.41-8.89-11.55-17.34-17.37-26l2.36-.78C1066.84,445.06,1069.77,445.31,1073,443.42Z" transform="translate(-768.32 -340.69)"/><path class="cls-7" d="M1076,437.68c.6-2.89,1.54-5.66,5.06-5.8,2.83-.12,4.42,1.71,5.1,4.36-.61,2.14-.45,4.74-3.57,5.28C1079.23,442.1,1077.22,440.61,1076,437.68Z" transform="translate(-768.32 -340.69)"/><path class="cls-7" d="M1073,443.42c-3.21,1.89-6.14,1.64-8.74-1.14q1-3.36,2.11-6.71l1.12-.66,2.42-.06,3.84,3.14Z" transform="translate(-768.32 -340.69)"/><path class="cls-7" d="M1097,512l3.79-3,5.45,2.37-2.49,7.31-6.71-2.32C1097.07,515,1097.05,513.5,1097,512Z" transform="translate(-768.32 -340.69)"/><path class="cls-8" d="M1097.77,434.94c.25,1.41.5,2.81.76,4.21-1.19,2.33-3,3.57-5.68,3.05-3.25-.63-3.73-3.19-4.06-5.84C1092.09,431.78,1094.48,431.4,1097.77,434.94Z" transform="translate(-768.32 -340.69)"/><path class="cls-7" d="M1115.83,503.06a1.51,1.51,0,0,0,0,.37c.5,2.52,2.09,5.12-.44,7.44-2.68,2.45-5.24.56-7.83-.27.19-2-.2-4.39.68-6.05C1110,501.39,1113.1,502.63,1115.83,503.06Z" transform="translate(-768.32 -340.69)"/><path class="cls-8" d="M1121.09,482.84c.74,2.49,1.47,5,2.21,7.47C1119.49,488.17,1119.07,486.75,1121.09,482.84Z" transform="translate(-768.32 -340.69)"/><path class="cls-8" d="M1121.82,482.06c-.24.24-.47.49-.7.73C1121.35,482.55,1121.58,482.3,1121.82,482.06Z" transform="translate(-768.32 -340.69)"/><path class="cls-10" d="M1100.78,548.94c3.15,2.81,1,6.3.41,9-4,18.9-10.08,37-21.48,53-1.14,1.6-2,3.38-3,5.07-3.25-1.73-6.21-1.15-8.94,1.16l-2.27-.37c1-1.43,1.94-2.9,3-4.29a130.81,130.81,0,0,0,24.89-59.76c.54-3.56,1.06-7.13,1.59-10.69l2.6.1C1096.45,545.41,1097.55,547.68,1100.78,548.94Z" transform="translate(-768.32 -340.69)"/><path class="cls-7" d="M1090.32,622.31c-1,2.6-2.18,5.23-5.59,5s-4.25-2.95-5-5.65c1.79-1.49,3.44-3.92,5.43-4.24C1088,616.93,1089.64,619.52,1090.32,622.31Z" transform="translate(-768.32 -340.69)"/><path class="cls-7" d="M1109,547.39c2.12-1.46,4.32-2.59,6.73-.72,2.6,2,2.48,4.57,1.1,7.26-2,1.41-4.21,2.6-6.46.87C1107.88,552.86,1107.79,550.18,1109,547.39Z" transform="translate(-768.32 -340.69)"/><path class="cls-7" d="M1067.76,617.12c2.73-2.31,5.69-2.89,8.94-1.16.27,1.82.53,3.62.8,5.43-1.88,1.7-3.54,3.86-6.58,3.14C1068,622.85,1067.59,620.12,1067.76,617.12Z" transform="translate(-768.32 -340.69)"/><path class="cls-7" d="M1100.78,548.94c-3.23-1.26-4.33-3.53-3.22-6.83,1.73-2.6,4.24-2.84,7-2.32l2.43,6.75Z" transform="translate(-768.32 -340.69)"/><path class="cls-10" d="M817.31,514.9c1.91-9.06,3.45-18.22,5.87-27.14a93.94,93.94,0,0,1,6.93-17.64c3.56-7.05,7.87-13.73,11.92-20.53.25-.43,1.09-.51,1.65-.76,5.82.73,6.51.35,7.86-4.35.16,1.86.85,3.19,3.05,3-1.7,2.09-3.47,4.11-5.07,6.27a117.78,117.78,0,0,0-19.49,40c-2.44,9.22-3.8,18.73-5.65,28.1l-2-.32C822,518.26,821.18,515.43,817.31,514.9Z" transform="translate(-768.32 -340.69)"/><path class="cls-7" d="M829.21,441.48c.76-2.65,2.45-4.44,5.25-4.39a4.46,4.46,0,0,1,4.74,4.34c-1,1.63-1.66,3.83-3.11,4.74-2.17,1.37-4.52.47-6.17-1.65C829.68,443.5,829.45,442.49,829.21,441.48Z" transform="translate(-768.32 -340.69)"/><path class="cls-7" d="M817.31,514.9c3.87.53,4.71,3.36,5,6.6-1.83,2.27-3.87,4.07-7.12,3.18l-1-.58-.75-.71-.08-.09-.63-.82.05,0c-.09-1.47-.17-2.93-.25-4.4Z" transform="translate(-768.32 -340.69)"/><path class="cls-7" d="M851.54,444.48c-1.35,4.7-2,5.08-7.86,4.35l-1.57-6.28c1.76-2.59,4.1-3.54,7.13-2.45Q850.38,442.29,851.54,444.48Z" transform="translate(-768.32 -340.69)"/><path class="cls-8" d="M809.83,517.15c-2.2.06-4.81.9-6.48,0-2.49-1.33-2-4.21-1-6.67,2.37-2,4.89-2.31,7.35-.33C812.37,512.33,811.13,514.78,809.83,517.15Z" transform="translate(-768.32 -340.69)"/><path class="cls-8" d="M793.89,506.23c.21-2.63-.51-5.67,3.06-6.78l1.61,0,2.06.66c3.21,2.74,3.24,4.76.13,8.28C798,509.24,795.37,509.55,793.89,506.23Z" transform="translate(-768.32 -340.69)"/><path class="cls-2" d="M829.21,441.48c.24,1,.47,2,.71,3-1,.59-1.91,1.2-2.9,1.76-.77.43-1.59.79-2.39,1.19l1.74-6Z" transform="translate(-768.32 -340.69)"/><path class="cls-11" d="M812.58,518.13c.08,1.47.16,2.93.25,4.4l-.87-4.32A4.2,4.2,0,0,0,812.58,518.13Z" transform="translate(-768.32 -340.69)"/><path class="cls-5" d="M800.62,500.07l-2.06-.66Z" transform="translate(-768.32 -340.69)"/><path class="cls-10" d="M942.54,674.1c-9.83.28-19-2.83-28.22-5.56a113.85,113.85,0,0,1-30.4-14.47c-2.64-1.75-5.08-3.79-7.61-5.7,1.5-3.06.34-5.69-1.37-8.22.13-.52.26-1,.38-1.54a22.42,22.42,0,0,1,2.9,1.57c18.46,13.63,38.84,22.6,61.68,25.73,3.17.44,6.32,1,9.48,1.55l-.18,2.27C945.74,669.29,943.3,670.42,942.54,674.1Z" transform="translate(-768.32 -340.69)"/><path class="cls-7" d="M944.64,681.62c1.45,2.25,2.41,5,.19,6.79-1.4,1.15-4,.86-6.06,1.22-3.08-1.78-3-4.68-1.6-7.09C939,679.46,941.88,679.82,944.64,681.62Z" transform="translate(-768.32 -340.69)"/><path class="cls-7" d="M942.54,674.1c.76-3.68,3.2-4.81,6.66-4.37l3.32,4.44c-.19,5.16-4.19,5-7.68,5.5C944.07,677.81,943.31,676,942.54,674.1Z" transform="translate(-768.32 -340.69)"/><path class="cls-7" d="M874.94,640.15c1.71,2.53,2.87,5.16,1.37,8.22l-5.84,1.74c-2.48-1.9-3.87-4.21-2.82-7.44Z" transform="translate(-768.32 -340.69)"/><path class="cls-7" d="M873.52,660.58l-4.47,2.25c-2.48-1.1-4.52-2.64-4.42-5.67.11-3.21,2.71-4,5.15-4.92C874.38,654.39,875,655.86,873.52,660.58Z" transform="translate(-768.32 -340.69)"/><path class="cls-8" d="M888.51,692.79c0-1,0-2,0-3C888.54,690.79,888.53,691.79,888.51,692.79Z" transform="translate(-768.32 -340.69)"/><path class="cls-2" d="M881,680.82l-.8-2.21Z" transform="translate(-768.32 -340.69)"/><path class="cls-2" d="M880.25,678.64l-.77-.78Z" transform="translate(-768.32 -340.69)"/><path class="cls-2" d="M879.51,677.88l-.87-.75Z" transform="translate(-768.32 -340.69)"/><path class="cls-2" d="M1039.29,377l.78.73a11.65,11.65,0,0,1-.38,2.15c-1.7,4.57-.3,6.86,4.43,7.66,1,.16,1.78,1.43,2.65,2.19-.94,1.92-2.74,3.89-2.63,5.74.17,3,3.11,3.38,5.68,3.51,0,.85,0,1.69,0,2.54-3.08.58-5.34,2.67-4.78,5.5.36,1.82,3.13,3.16,4.82,4.71-.29.91-.58,1.81-.88,2.71l-5.88,1.68c-.86-1-1.51-2.37-2.59-3-8.19-4.54-16.24-9.4-24.74-13.25a114.89,114.89,0,0,0-38.9-10.23L974,385l1.09-2.08c2.72,1.11,5.41,1.29,7.28-1.34,1.63-2.3.86-4.65-.79-6.74l1.62-3c1.11,2.59,3,3.94,5.84,3.19s3.41-3,3.13-5.62c0-.5-.06-1-.09-1.5l3-.66c3.63,4.34,6.52,3.95,9-1.25.82-1.71,1.56-2.61,3.07-.57,3.37,4.55,5.39,4.61,9.3.48a8.6,8.6,0,0,1,2.08-1.13c.32,1.07.53,1.86.79,2.62,1.23,3.67,4.13,4.9,7.63,3.33,1.08-.48,2.24-.81,3.37-1.22,0,.5.08,1,.08,1.49C1030.37,377.22,1032.48,378.64,1039.29,377Z" transform="translate(-768.32 -340.69)"/><path class="cls-3" d="M873.51,380.73a5.89,5.89,0,0,1,1.1-.06c7.09,1.05,8.69-.65,7.42-7.94a16.74,16.74,0,0,1,3.67.94c3.69,1.91,6.45.57,7.44-3.41.29-1.15,1.85-2,2.82-3l0,0c.07,2.78,2,3.55,4.26,3.71s4.33-.12,4.71-3c1.66-3.06,2.63-1.37,3.73.48,2.47,4.16,5.53,4.52,8.37,1.08,1.69-1,3-.84,3,1.38-.1,3,1.38,5.16,3.92,5.44,1.77.2,3.76-1.53,5.65-2.4l1,1.75a4.87,4.87,0,0,1,0,1.48c-.74,2.25-1,4.3,1.12,6.1,2.31,1.95,4.34.77,6.46-.21l2.9,2.5c-4.06.47-3.79,3.53-3.83,6.4-1.3-.48-2.67-1.48-3.9-1.34a60.2,60.2,0,0,0-8.32,1.88c-19.7,5.27-37.91,13.56-53.83,26.52l-5.31-1.33c-.2-.7-.4-1.39-.61-2.09,2.81-1.18,4.43-3.13,3.83-6.33-.54-2.84-2.72-3.55-5.2-3.8,0-.95,0-1.91-.05-2.87a16.34,16.34,0,0,0,4-.72c3.07-1.36,3.57-4.28,1.35-6.83-.72-.81-1.46-1.61-2.33-2.57l2.28-2,4-1.43c.38-.55.75-1.1,1.13-1.64,0-1,0-1.91-.07-2.87Z" transform="translate(-768.32 -340.69)"/><path class="cls-11" d="M946.41,392c.62-2.28,1.83-3.28,4.45-3.09,4.2.3,8.46,0,12.68.14,1.19.05,2.34.92,3.51,1.41l2.62,3.69c.13,2.34-1.35,2.45-3.15,2.45-4.43,0-8.86.18-13.3.29l-1.82.1-2,.13-3.2.22-2.37-2.42Z" transform="translate(-768.32 -340.69)"/><path class="cls-7" d="M981.53,374.83c1.65,2.09,2.42,4.44.79,6.74-1.87,2.63-4.56,2.45-7.28,1.34-1.63-2.26-2.65-4.63-.63-7.14S979,373.76,981.53,374.83Z" transform="translate(-768.32 -340.69)"/><path class="cls-8" d="M938.1,383.09c-2.12,1-4.15,2.16-6.46.21-2.12-1.8-1.86-3.85-1.12-6.1a4.87,4.87,0,0,0,0-1.48,5,5,0,0,0,1.46-.18c2.51-1.11,4.82-1.29,6.68,1.18C940.41,379,939.53,381.08,938.1,383.09Z" transform="translate(-768.32 -340.69)"/><path class="cls-7" d="M946.41,392l-2.55,2.92c-2.82.38-5.35.09-6.69-2.93,0-2.87-.23-5.93,3.83-6.4C945.49,385.84,946.24,386.73,946.41,392Z" transform="translate(-768.32 -340.69)"/><path class="cls-7" d="M969.67,394.15l-2.62-3.69c.68-4.9,1.25-5.35,6.9-5.47l3,4.68c-.57,2.4-1.67,4.3-4.38,4.72l-1.49,0Z" transform="translate(-768.32 -340.69)"/><path class="cls-6" d="M992,367.91c0,.5,0,1,.09,1.5.28,2.62-.3,4.86-3.13,5.62s-4.73-.6-5.84-3.19c-.61-3.52.57-5.75,4.39-6l1.5,0h0Z" transform="translate(-768.32 -340.69)"/><path class="cls-5" d="M989,365.76l-1.5,0Z" transform="translate(-768.32 -340.69)"/><path class="cls-11" d="M874.94,640.15l-7.29,2.52c-3.67-3.5-7.28-7.08-11-10.48a36,36,0,0,0-4.75-3.11c3.46-1.48,3.4-4.47,3.24-7.5l1.93-.87c3.59,3.59,7.16,7.21,10.79,10.77,2.46,2.41,5,4.75,7.51,7.13Z" transform="translate(-768.32 -340.69)"/><path class="cls-11" d="M952.52,674.17l-3.32-4.44.18-2.27,26.08-.65.06,2.69c-1.95,1.25-3.28,2.84-2.92,5.35-6,.24-12,.53-18.05.66C953.89,675.53,953.2,674.64,952.52,674.17Z" transform="translate(-768.32 -340.69)"/><path class="cls-11" d="M851.54,444.48q-1.15-2.19-2.3-4.38l13.9-14.68,7.33,2.09.12,2.65a31.1,31.1,0,0,0-2.47,2.25c-4.53,5-9,10-13.53,15.06C852.39,447.67,851.7,446.34,851.54,444.48Z" transform="translate(-768.32 -340.69)"/><path class="cls-7" d="M870.47,427.51l-7.33-2.09c-1.28-3.32.2-5.68,2.67-7.7l5.31,1.33C873.35,422.06,872.25,424.81,870.47,427.51Z" transform="translate(-768.32 -340.69)"/><path class="cls-7" d="M863.83,405.5c2.48.25,4.66,1,5.2,3.8.6,3.2-1,5.15-3.83,6.33-2.83-.25-5.21-1.3-5.68-4.39S861.25,406.56,863.83,405.5Z" transform="translate(-768.32 -340.69)"/><path class="cls-11" d="M1104.56,539.79c-2.76-.52-5.27-.28-7,2.32l-2.6-.1-.72-25.27,2.84-.31,6.71,2.32c-.21,6.44-.45,12.88-.56,19.33C1103.22,538.64,1104.1,539.21,1104.56,539.79Z" transform="translate(-768.32 -340.69)"/><path class="cls-11" d="M815.23,524.68c3.25.89,5.29-.91,7.12-3.18l2,.32q.25,11.68.5,23.37l-2.52,3.31-.35.12c-.55-3.2-2.93-3.53-5.52-3.52,0-4.85,0-9.71,0-14.56,0-2.21.45-4.57-2.53-5.46-.3-.09-.34-1.1-.49-1.69l.75.71Z" transform="translate(-768.32 -340.69)"/><path class="cls-11" d="M812.78,522.48l.63.82Z" transform="translate(-768.32 -340.69)"/><path class="cls-8" d="M793.48,563l-.53-.34.19-.3A1.47,1.47,0,0,1,793.48,563Z" transform="translate(-768.32 -340.69)"/><path class="cls-11" d="M1067.76,617.12c-.17,3,.26,5.73,3.16,7.41-2.4,2.26-4.88,4.44-7.19,6.79-2.52,2.56-4.87,5.27-7.29,7.91-1.82-2.69-4.49-2.93-7.38-2.56l-.85-1.61c.09-.36.06-.83.28-1.06,5.65-5.77,11.33-11.5,17-17.25Z" transform="translate(-768.32 -340.69)"/><path class="cls-5" d="M1056.58,670.39l.89-.75Z" transform="translate(-768.32 -340.69)"/><path class="cls-5" d="M1094,623.88c.26.26.52.52.79.77C1094.49,624.4,1094.23,624.14,1094,623.88Z" transform="translate(-768.32 -340.69)"/><path class="cls-5" d="M1093.44,623.09l.56.83Z" transform="translate(-768.32 -340.69)"/><path class="cls-11" d="M1069.89,434.85l-2.43.06-1.11.66q-1.06,3.35-2.11,6.71l-2.36.77-17.78-17.13,4.18-2.18L1052,421c4.23,4.23,8.28,8.66,12.79,12.55,1.19,1,3.82.36,5.79.49.06,0,.16.23.15.24Z" transform="translate(-768.32 -340.69)"/><path class="cls-8" d="M1049.82,399c-2.57-.13-5.51-.52-5.68-3.51-.11-1.85,1.69-3.82,2.63-5.74l3-.74,7.44,3.63-.25.2-.31,0-.85.38c-.81.67-1.66,1.3-2.41,2C1052.2,396.43,1051,397.72,1049.82,399Z" transform="translate(-768.32 -340.69)"/><path class="cls-7" d="M1049.91,411.73c-1.69-1.55-4.46-2.89-4.82-4.71-.56-2.83,1.7-4.92,4.78-5.5.27.25.51.68.81.73,2.7.48,4.42,2,4.18,4.77S1052.74,411.4,1049.91,411.73Z" transform="translate(-768.32 -340.69)"/><path class="cls-7" d="M1052,421l-3.69,2.71c-5.48-.61-6.68-2.39-5.13-7.62l5.88-1.68C1051.66,415.9,1052.42,418.2,1052,421Z" transform="translate(-768.32 -340.69)"/><path class="cls-5" d="M1055.85,393.18l.85-.38Z" transform="translate(-768.32 -340.69)"/><path class="cls-8" d="M873,389.09l-4,1.43v-3.31Z" transform="translate(-768.32 -340.69)"/><path class="cls-8" d="M874.09,384.58c0,1,0,1.91.07,2.87C874.13,386.49,874.11,385.54,874.09,384.58Z" transform="translate(-768.32 -340.69)"/><path class="cls-8" d="M905,368c-.38,2.87-2.49,3.15-4.71,3s-4.19-.93-4.26-3.71C898.73,370.42,901.78,370,905,368Z" transform="translate(-768.32 -340.69)"/><path class="cls-12" d="M1044.1,425.92l17.78,17.13c5.82,8.65,12,17.1,17.37,26,5.79,9.52,9.25,20.07,11.85,30.88.38,1.57.93,3.1,1.4,4.65l1.74,12.17L1095,542c-.53,3.56-1,7.13-1.59,10.69a130.81,130.81,0,0,1-24.89,59.76c-1,1.39-2,2.86-3,4.29-5.67,5.75-11.35,11.48-17,17.25-.22.23-.19.7-.28,1.06-4.53,3.22-9,6.57-13.62,9.64-17,11.28-35.51,18.77-55.88,21.3a26.61,26.61,0,0,0-3.25.81l-26.08.65c-3.16-.52-6.31-1.11-9.48-1.55-22.84-3.13-43.22-12.1-61.68-25.73a22.42,22.42,0,0,0-2.9-1.57c-2.5-2.38-5.05-4.72-7.51-7.13-3.63-3.56-7.2-7.18-10.79-10.77-7.65-9.79-14.8-19.91-19.94-31.3-6.18-13.66-10.63-27.8-11.71-42.86a5.56,5.56,0,0,0-.49-1.36q-.24-11.69-.5-23.37c1.85-9.37,3.21-18.88,5.65-28.1a117.78,117.78,0,0,1,19.49-40c1.6-2.16,3.37-4.18,5.07-6.27,4.5-5,9-10.06,13.53-15.06a31.1,31.1,0,0,1,2.47-2.25c7.57-5.39,14.82-11.33,22.8-16a108.17,108.17,0,0,1,33.88-13.29c6.31-1.24,12.64-2.34,19-3.51l3.2-.22,2-.13,1.82-.1c2,.08,4,.29,5.94.23A125.21,125.21,0,0,1,1022,412C1029.7,416.07,1036.76,421.26,1044.1,425.92Zm-202.82,106A118.41,118.41,0,1,0,959.85,413.7C894.5,413.53,841.48,466.39,841.28,531.93Z" transform="translate(-768.32 -340.69)"/><path class="cls-2" d="M822,548.62l.35-.12c-.15,1.35-.31,2.71-.47,4.06Z" transform="translate(-768.32 -340.69)"/><path class="cls-2" d="M853.26,620.1l-2.3-.73Z" transform="translate(-768.32 -340.69)"/><path class="cls-2" d="M849.59,619.38l-2.26.78Z" transform="translate(-768.32 -340.69)"/><path class="cls-3" d="M1094.24,516.74l-1.74-12.17c.51.95,1.33,1.87,1.45,2.87a61.83,61.83,0,0,1,.07,6.87l3-2.27c0,1.46,0,2.93,0,4.39Z" transform="translate(-768.32 -340.69)"/><path class="cls-4" d="M1066.35,435.57l1.11-.66Z" transform="translate(-768.32 -340.69)"/><path class="cls-4" d="M815.23,524.68l-1-.58Z" transform="translate(-768.32 -340.69)"/><path class="cls-10" d="M1044.1,425.92c-7.34-4.66-14.4-9.85-22.06-13.89a125.21,125.21,0,0,0-62.88-14.91c-2,.06-4-.15-5.94-.23,4.44-.11,8.87-.27,13.3-.29,1.8,0,3.28-.11,3.15-2.45l1.38.27,1.49,0c2.71-.42,3.81-2.32,4.38-4.72a114.89,114.89,0,0,1,38.9,10.23c8.5,3.85,16.55,8.71,24.74,13.25,1.08.6,1.73,2,2.59,3-1.55,5.23-.35,7,5.13,7.62Z" transform="translate(-768.32 -340.69)"/><path class="cls-10" d="M946.23,397.34c-6.32,1.17-12.65,2.27-19,3.51a108.17,108.17,0,0,0-33.88,13.29c-8,4.69-15.23,10.63-22.8,16l-.12-2.65c1.78-2.7,2.88-5.45.65-8.46,15.92-13,34.13-21.25,53.83-26.52a60.2,60.2,0,0,1,8.32-1.88c1.23-.14,2.6.86,3.9,1.34,1.34,3,3.87,3.31,6.69,2.93Z" transform="translate(-768.32 -340.69)"/><path class="cls-10" d="M951.4,397l-2,.13Z" transform="translate(-768.32 -340.69)"/><path class="cls-2" d="M972.54,394.39l-1.49,0Z" transform="translate(-768.32 -340.69)"/><path class="cls-13" d="M841.28,531.93c.2-65.54,53.22-118.4,118.57-118.23A118.42,118.42,0,1,1,841.28,531.93Zm203.38-50.73,0-.05c2,2.36,2,2.36,2.93.86l.33-.06.33,0,2.34,1.58a.42.42,0,0,1-.43.09l-.94.91a.58.58,0,0,1-.19.47c-3.64,1.53-1.78,3,0,4.5a.44.44,0,0,1,.15.43l1,.92c1.92-.47,4.67-.36,5.5-1.57s-.38-3.69-.69-5.62c-1-1.2-2.83-2.44-2.77-3.58.26-4.54-.77-7.65-6-7.42-.07-1.05-.14-1.67-.15-2.29-.11-5.63-.14-5.63-5.65-6.43-.65-.1-1.2-.9-1.79-1.37,2.23-2.37,2-3.57-.81-4.61l-.75-.74-4.82-1-1.26-2.71a.64.64,0,0,1,0-.54l-1.08-2.31c-2,.06-4.12-.34-5.82.37-.77.33-1.38,3.52-.75,4.19,1.23,1.32,3.38,1.8,5.15,2.62l1.82,1.66c-.17,1.28-.9,3.35-.42,3.68a53.72,53.72,0,0,0,7.17,3.62,12.61,12.61,0,0,0,.11,3.83c.26.91,1.5,1.55,2.31,2.31a1,1,0,0,1,.6.14c2.29,1.6,3.59,3.66,3.16,6.59,0,.19.48.46.73.7l-.06.05ZM1049,591.54h0l3.57-4.71-3.65-1.2v0a26.8,26.8,0,0,0,3.42-1.62,22.15,22.15,0,0,0,2.62-2.34c.58-2.44.74-4.8-2.06-6-2.59-1.14-4.28.08-5.42,2.39l-4.45,7.56a4.52,4.52,0,0,0,0,5.89C1045,593.77,1047,593.78,1049,591.54Zm-139.5,31.53,0-2.33-.11-2.63c-.45-.84-1-2.43-1.31-2.38-2,.32-4.73-1.8-6,1.46.2,1.89-.27,4.56.78,5.45s3.67.23,5.59.24l1.08.2c0,2.85-.35,6,4,5.88l1.93.08c1.65.14,3.27.22,3.07-2.22h0L920,629.3l1.6,2.75c1.87,0,3.9.41,5.54-.21.75-.29,1.26-2.71,1-4-.7-3.07-3.08-3.35-5.73-2.53a17.36,17.36,0,0,1-2.36-1,9,9,0,0,1-1.5-1.34.39.39,0,0,1-.15-.4c-.32-.83-.73-2.38-1-2.36a40.1,40.1,0,0,0-4.89,1.11.65.65,0,0,1-.49.26l-.88,1a.41.41,0,0,1-.13.43ZM1065.48,542c2.66-1.74,2.11-3.75.51-5.85l-.56-.51.1-4.19c1.57-1.92,2.12-3.91.23-5.92-2.2-2.34-4.39-1.46-6.54.14-2.24,3.19-1.39,6.19,2,7.4a8.83,8.83,0,0,1,2,1.53h-1.36l-2.37,1.4a.26.26,0,0,1-.32.16c-2.09,2.35-1.93,4.86.45,6.55,1.73,1.22,4.25,2.26,5.83-.73ZM905,591.62l3.73,3.74c4.53,3.24,8.84,6.87,13.64,9.63,9.45,5.43,20,7.34,30.7,8.24l.76,0,14.22-.14,7.54-1.29,1.46-.1a82.51,82.51,0,0,0,53.07-38.61c8.34-14.29,11.64-29.78,10.81-46.32a77.06,77.06,0,0,0-10.7-35.43,79.78,79.78,0,0,0-40.54-35,79,79,0,0,0-43.6-4.66,80.83,80.83,0,0,0-46.86,25.87,79.17,79.17,0,0,0-17.1,29.52c-4.94,15.42-5.66,31.11-.91,46.72,2.64,8.65,5.36,17.4,11.73,24.31,2.93,5.47,6.69,10.18,12.05,13.47Zm41.64-157.76c2.79.17,4.76-1.18,5-3.82a4.83,4.83,0,0,0-2.09-3.85c-2.12-1.17-4.32-.61-5.59,1.82l-2.88,1.49c-1.52-2.07-3.63-3.17-5.76-1.56a5.71,5.71,0,0,0-1.64,4.5c.38,3.55,3.94,3.88,7.38.84ZM1056,501.54c3.31-.57,4.75-1.94,4.78-4.38s-1.61-4.7-4-4.2a6.52,6.52,0,0,0-4,4.27C1052.42,498.37,1054.77,500.08,1056,501.54Zm7.76,59.31.09-1.74c-1.47-1.15-2.8-2.92-4.45-3.3-2.2-.5-4.15.72-4.24,3.45s1.24,4.6,3.87,4.33C1060.64,563.42,1062.15,561.81,1063.72,560.85ZM995.2,436.22c0,.6,0,1.2,0,1.79,1.57,1.08,3.28,3.17,4.66,3s3.48-2.4,3.82-4a3.21,3.21,0,0,0-3.89-3.79C998.14,433.46,996.72,435.15,995.2,436.22ZM967.14,630.4l-1.78,0c-1.06,1.54-3.07,3.17-2.93,4.58A5.91,5.91,0,0,0,966.1,639a3.2,3.2,0,0,0,4-3.62C969.83,633.64,968.17,632.06,967.14,630.4Zm-22.89,8.4h1.8c1-1.49,2.75-2.88,3-4.47a3.42,3.42,0,0,0-4-4,5.79,5.79,0,0,0-3.59,4.06C941.21,635.71,943.21,637.31,944.25,638.8Zm-69-157.68.07-1.61c-1.49-1.14-3-3.22-4.45-3.15a5.8,5.8,0,0,0-4.25,3.46,3.34,3.34,0,0,0,3.87,4.15C872.17,483.77,873.67,482.12,875.25,481.12ZM991.36,632.89c-.32-3.8-1.66-5.27-4.36-5.29s-3.8,1.58-3.8,4,1.72,4.14,4,3.85C988.82,635.24,990.28,633.59,991.36,632.89Zm64.38-125.63c.09,2.76,1.82,3.88,4.12,3.83s4.49-1.29,3.82-3.83a6.3,6.3,0,0,0-3.82-4C1057.37,502.76,1055.91,504.74,1055.74,507.26ZM884.07,607.73c1.51,1.06,3.18,3.12,4.5,2.92a6.07,6.07,0,0,0,4-3.8c.56-2.32-1.41-3.94-3.86-3.94S884.75,604.15,884.07,607.73Zm156.69-15.13-1.74-.08c-1.12,1.48-3.19,3-3.09,4.44a5.85,5.85,0,0,0,3.55,4.12c2.49.69,4.48-1.23,4.16-3.81C1043.43,595.62,1041.77,594.15,1040.76,592.6Zm-21.37-140.77c1-1.58,2.58-3.06,2.82-4.74.34-2.37-1.27-4.1-3.86-3.94-2.4.15-3.92,1.5-3.88,4.14S1015.94,451.12,1019.39,451.83Zm41.33,102.08,1.67,0c1-1.54,3-3.21,2.85-4.57a5.88,5.88,0,0,0-3.8-3.93,3.33,3.33,0,0,0-4,4C1057.78,551.06,1059.59,552.43,1060.72,553.91ZM907.14,447.48c3.37-.76,4.69-2.13,4.57-4.66s-1.41-4.1-3.89-4-4.39,1.85-4,4.32C904.15,444.7,906,446,907.14,447.48ZM923,435.32c1,.74,2.58,2.86,4.13,2.82,1.36,0,3.41-2.3,3.81-3.92.58-2.32-1.22-3.94-3.73-3.92C924.87,430.31,923.16,431.34,923,435.32Zm-65.13,89.41c1.19-1.56,3.31-3.15,3.28-4.69,0-1.37-2.43-3.7-3.83-3.74s-3.44,2.16-3.9,3.74C852.77,522.33,854.44,523.92,857.87,524.73Zm60.36-91.29-1.86,0c-1,1.53-2.69,2.95-3,4.61-.4,2.34,1.2,4,3.75,4.13a3.55,3.55,0,0,0,4-4C921,436.53,919.25,435,918.23,433.44Zm12.4,197.41c-.06,4.06,1.86,5.46,4,5.16a5.64,5.64,0,0,0,3.85-3.46c.53-2.38-.92-4.69-3.78-4.19C933,628.65,931.58,630.24,930.63,630.85Zm39.26-196.92c1.05-1.53,2.75-3,3-4.62a3.46,3.46,0,0,0-3.85-4c-2.23.13-4,1.39-4,4.06S966.5,433.19,969.89,433.93ZM897,609.68c-2.86,0-4.57,1.67-4.16,4.13a5.75,5.75,0,0,0,3.64,3.74c2.24.53,4-.95,4.08-3.63C900.65,611.4,899.57,609.89,897,609.68Zm83.56-174.77c.71-.89,2.48-2.21,2.86-3.84.55-2.36-1.1-4.12-3.59-4.21s-4.16,1.13-4.23,3.72C975.55,433,976.63,434.65,980.58,434.91Zm-4.4,203.6h1.66c1-1.6,2.56-3.13,2.78-4.83a3.2,3.2,0,0,0-4-3.68c-1.57.42-3.61,2.56-3.7,4S975,637,976.18,638.51ZM863,495.42c-4,.15-5.42,2-5,4.19a5.66,5.66,0,0,0,3.73,3.59c2.36.38,4.68-1.16,4.07-3.95C865.44,497.61,863.63,496.28,863,495.42Zm32.25-38.94v-1.71c-1.49-1.13-3.09-3.28-4.42-3.13a5.88,5.88,0,0,0-4.07,3.75c-.47,2.49,1.73,4.27,4.21,3.94C892.45,459.13,893.78,457.48,895.2,456.48ZM879,589.72c-1-.76-2.37-2.6-4-2.87a3.43,3.43,0,0,0-4.13,4c.24,1.42,2.25,3.15,3.79,3.59C877,595.13,878.51,593.45,879,589.72Zm-13.13-94.64c1.86-2.52,3.54-3.82,3.78-5.34a3.48,3.48,0,0,0-3.92-4.23,5.81,5.81,0,0,0-3.76,4C861.75,490.86,863.88,492.48,865.82,495.08Zm-9.39,66.13,0,1.81c1.51,1,3.15,3.05,4.49,2.87a5.94,5.94,0,0,0,4-3.69,3.26,3.26,0,0,0-3.81-3.86C859.46,558.55,858,560.2,856.43,561.21Zm-1.38-26.11,1.66.18c1.3-1.36,3.6-2.7,3.62-4.09a5.74,5.74,0,0,0-3.29-4.37c-2.45-.76-4.41,1.25-4.36,3.73C852.71,532.08,854.21,533.58,855.05,535.1Zm32-73.38c-.93-.67-2.36-2.48-4-2.7-2.67-.36-4.23,2-3.81,4.31.27,1.4,2.39,3.16,3.92,3.45C885.45,467.19,887.09,465.61,887.08,461.72Zm170.19,56.54c1.46,1.12,2.79,2.87,4.41,3.2,2.29.46,4-1,4-3.66,0-2.51-1.11-4.06-3.68-4.16S1058.06,514.8,1057.27,518.26ZM881.06,472.48l.12-1.7c-1.46-1.21-2.76-3-4.42-3.46-2.33-.57-4,1.18-4.27,3.59s1.36,4.27,3.66,4.12C877.84,474.92,879.43,473.38,881.06,472.48Zm.81,122.11-1.75.08c-.94,1.56-2.48,3-2.69,4.69-.32,2.57,1.68,3.63,4.11,3.57,2.58-.06,4.2-1.67,3.69-4C884.88,597.31,883,596,881.87,594.59Zm151.51,6c-3.44.76-4.7,2.14-4.61,4.69a3.65,3.65,0,0,0,4.07,3.86c2.5-.06,4.15-1.81,3.72-4.11C1036.26,603.41,1034.49,602.06,1033.38,600.59Zm-4.07,12.69c0-.57,0-1.15.08-1.73-1.51-1.11-3-3.07-4.52-3.09s-3.66,1.88-4,3.29a3.41,3.41,0,0,0,3.71,4.36C1026.25,615.93,1027.75,614.27,1029.31,613.28Zm-44-179.14c1.47,1.11,3.06,3.24,4.36,3.07,1.57-.19,2.88-2.34,4.31-3.65-1.33-1.36-2.45-3.46-4-3.91C987.64,429,986.15,430.75,985.34,434.14Zm22.29,185.2c-3.66.54-4.76,2.28-4.7,4.62s1.41,3.84,4.09,3.73,4.18-1.55,3.68-4C1010.36,622.13,1008.7,620.79,1007.63,619.34Zm9.54,3.19c.78-1,3.06-2.56,2.9-3.87-.18-1.54-2.29-3.54-3.92-4-.95-.25-3.34,2-3.76,3.49C1011.75,620.51,1013.38,622.14,1017.17,622.53ZM903.4,449.81l.08-1.74c-1.51-1.13-3-3.13-4.53-3.13-1.32,0-3.39,2.07-3.78,3.57a3.2,3.2,0,0,0,3.52,4.14C900.35,452.45,901.83,450.8,903.4,449.81ZM870.14,577.29c-3.45.63-4.84,2-4.82,4.49s1.46,4.36,3.89,3.7c1.62-.43,3.68-2.31,3.92-3.8C873.34,580.41,871.23,578.77,870.14,577.29Zm86.46,53.36-1.75,0c-1.07,1.49-3,3-3,4.46s2,2.77,3.17,4.15c1.55-1.31,3.85-2.38,4.39-4C959.8,634.11,957.64,632.19,956.6,630.65Zm45.24-3.14c-1.49-1.11-2.85-2.87-4.49-3.19-2.45-.47-3.87,1.3-3.88,3.85,0,2.36,1.15,3.8,3.56,3.91S1001,631,1001.84,627.51ZM858.13,555.68c2.78.06,4.17-1.27,4.19-3.83,0-2.34-1.13-3.77-3.62-3.84-2.79-.08-4.23,1.32-4.18,4.07C854.58,554.43,855.75,555.83,858.13,555.68Zm3.34-15.41c-1.46-.94-2.83-2.44-4.41-2.7-2.79-.47-4.21,1.71-4.19,4.12,0,2.18,1.61,3.52,4,3.46C859.56,545.09,860.75,543.68,861.47,540.27Zm-1.4,31v1.83c1.44.95,2.79,2.43,4.36,2.73,2.38.45,4.5-1.24,4.14-3.53a5.86,5.86,0,0,0-3.94-3.83C863.3,568.23,861.61,570.23,860.07,571.25Zm199.55-1.58c-.17-2.65-1.65-3.83-4.17-3.7-2.33.12-3.81,1.38-3.72,3.77a3.75,3.75,0,0,0,4.07,3.92C1058.46,573.69,1059.54,572.12,1059.62,569.67Zm-54.23-127c.93.77,2.54,3.08,3.79,2.9,1.54-.22,3.51-2.32,4-4,.58-2.06-1-3.76-3.47-3.88S1005.72,438.9,1005.39,442.71ZM862.31,509.57c.32-2.32-.7-3.86-3.21-3.83s-4.45,1.4-4,3.85a5.8,5.8,0,0,0,3.51,3.82C861,514,862.5,512.38,862.31,509.57ZM962.78,430l.08-1.71c-1.34-1.1-3-3.31-4-3-1.71.46-3,2.44-4.48,3.78,1.22,1.32,2.37,3.59,3.69,3.69C959.59,432.81,961.22,431,962.78,430Z" transform="translate(-768.32 -340.69)"/><path class="cls-14" d="M1039.45,472.94c-.81-.76-2-1.4-2.31-2.31a12.61,12.61,0,0,1-.11-3.83,53.72,53.72,0,0,1-7.17-3.62c-.48-.33.25-2.4.42-3.68l.36.28c.82,1.64,1.24,3.93,2.57,4.76,2,1.27,4,0,5.22-2.11l.2.17c.59.47,1.14,1.27,1.79,1.37,5.51.8,5.54.8,5.65,6.43,0,.62.08,1.24.15,2.29,5.23-.23,6.26,2.88,6,7.42-.06,1.14,1.79,2.38,2.77,3.58l-4.44-.13-2.33-1.58c.51-.35,1.3-.59,1.48-1.07.55-1.49,1.6-3.39,1.09-4.51s-2.8-2.49-4-2.25-2.21,2.25-3,3.65c-.35.64.07,1.7.14,2.57-.25-.24-.76-.51-.73-.7.43-2.93-.87-5-3.16-6.59.49,0,1.13.15,1.46-.09,1.29-1,3.13-1.85,3.5-3.14a4.5,4.5,0,0,0-1.78-4c-1.06-.59-3.66-.26-4.26.59-.87,1.24-.64,3.32-.68,5C1038.29,472,1039,472.47,1039.45,472.94Z" transform="translate(-768.32 -340.69)"/><path class="cls-8" d="M1056,501.54c-1.19-1.46-3.54-3.17-3.29-4.31a6.52,6.52,0,0,1,4-4.27c2.41-.5,4,1.65,4,4.2S1059.27,501,1056,501.54Z" transform="translate(-768.32 -340.69)"/><path class="cls-8" d="M1063.72,560.85c-1.57,1-3.08,2.57-4.73,2.74-2.63.27-4-1.67-3.87-4.33s2-4,4.24-3.45c1.65.38,3,2.15,4.45,3.3Z" transform="translate(-768.32 -340.69)"/><path class="cls-9" d="M995.2,436.22c1.52-1.07,2.94-2.76,4.6-3.06a3.21,3.21,0,0,1,3.89,3.79c-.34,1.63-2.32,3.8-3.82,4s-3.09-1.89-4.66-3C995.21,437.42,995.2,436.82,995.2,436.22Z" transform="translate(-768.32 -340.69)"/><path class="cls-9" d="M967.14,630.4c1,1.66,2.69,3.24,2.94,5a3.2,3.2,0,0,1-4,3.62,5.91,5.91,0,0,1-3.67-4.07c-.14-1.41,1.87-3,2.93-4.58Z" transform="translate(-768.32 -340.69)"/><path class="cls-9" d="M944.25,638.8c-1-1.49-3-3.09-2.88-4.44A5.79,5.79,0,0,1,945,630.3a3.42,3.42,0,0,1,4,4c-.21,1.59-1.92,3-3,4.47Z" transform="translate(-768.32 -340.69)"/><path class="cls-9" d="M875.25,481.12c-1.58,1-3.08,2.65-4.76,2.85a3.34,3.34,0,0,1-3.87-4.15,5.8,5.8,0,0,1,4.25-3.46c1.42-.07,3,2,4.45,3.15Z" transform="translate(-768.32 -340.69)"/><path class="cls-9" d="M991.36,632.89c-1.08.7-2.54,2.35-4.18,2.56-2.26.29-4-1.29-4-3.85s1.13-4,3.8-4S991,629.09,991.36,632.89Z" transform="translate(-768.32 -340.69)"/><path class="cls-9" d="M1055.74,507.26c.17-2.52,1.63-4.5,4.12-4a6.3,6.3,0,0,1,3.82,4c.67,2.54-1.55,3.77-3.82,3.83S1055.83,510,1055.74,507.26Z" transform="translate(-768.32 -340.69)"/><path class="cls-9" d="M884.07,607.73c.68-3.58,2.29-4.82,4.69-4.82s4.42,1.62,3.86,3.94a6.07,6.07,0,0,1-4,3.8C887.25,610.85,885.58,608.79,884.07,607.73Z" transform="translate(-768.32 -340.69)"/><path class="cls-12" d="M1040.76,592.6c1,1.55,2.67,3,2.88,4.67.32,2.58-1.67,4.5-4.16,3.81a5.85,5.85,0,0,1-3.55-4.12c-.1-1.4,2-3,3.09-4.44Z" transform="translate(-768.32 -340.69)"/><path class="cls-8" d="M1019.39,451.83c-3.45-.71-4.88-1.92-4.92-4.54s1.48-4,3.88-4.14c2.59-.16,4.2,1.57,3.86,3.94C1022,448.77,1020.38,450.25,1019.39,451.83Z" transform="translate(-768.32 -340.69)"/><path class="cls-8" d="M1060.72,553.91c-1.13-1.48-2.94-2.85-3.23-4.48a3.33,3.33,0,0,1,4-4,5.88,5.88,0,0,1,3.8,3.93c.19,1.36-1.82,3-2.85,4.57Z" transform="translate(-768.32 -340.69)"/><path class="cls-9" d="M907.14,447.48c-1.14-1.45-3-2.78-3.28-4.38-.43-2.47,1.39-4.25,4-4.32s3.78,1.65,3.89,4S910.51,446.72,907.14,447.48Z" transform="translate(-768.32 -340.69)"/><path class="cls-9" d="M923,435.32c.16-4,1.87-5,4.21-5,2.51,0,4.31,1.6,3.73,3.92-.4,1.62-2.45,3.88-3.81,3.92C925.58,438.18,924,436.06,923,435.32Z" transform="translate(-768.32 -340.69)"/><path class="cls-12" d="M857.87,524.73c-3.43-.81-5.1-2.4-4.45-4.69.46-1.58,2.58-3.77,3.9-3.74s3.81,2.37,3.83,3.74C861.18,521.58,859.06,523.17,857.87,524.73Z" transform="translate(-768.32 -340.69)"/><path class="cls-12" d="M918.23,433.44c1,1.58,2.73,3.09,2.88,4.75a3.55,3.55,0,0,1-4,4c-2.55-.11-4.15-1.79-3.75-4.13.28-1.66,1.93-3.08,3-4.61Z" transform="translate(-768.32 -340.69)"/><path class="cls-9" d="M1059.23,525.67c2.14-1.6,4.33-2.48,6.53-.14,1.89,2,1.34,4-.23,5.92C1060.43,533,1058.39,531.07,1059.23,525.67Z" transform="translate(-768.32 -340.69)"/><path class="cls-9" d="M930.63,630.85c1-.61,2.4-2.2,4.07-2.49,2.86-.5,4.31,1.81,3.78,4.19a5.64,5.64,0,0,1-3.85,3.46C932.49,636.31,930.57,634.91,930.63,630.85Z" transform="translate(-768.32 -340.69)"/><path class="cls-9" d="M969.89,433.93c-3.39-.74-4.81-2-4.85-4.57s1.76-3.93,4-4.06a3.46,3.46,0,0,1,3.85,4C972.64,431,970.94,432.4,969.89,433.93Z" transform="translate(-768.32 -340.69)"/><path class="cls-9" d="M897,609.68c2.55.21,3.63,1.72,3.56,4.24-.07,2.68-1.84,4.16-4.08,3.63a5.75,5.75,0,0,1-3.64-3.74C892.45,611.35,894.16,609.67,897,609.68Z" transform="translate(-768.32 -340.69)"/><path class="cls-9" d="M980.58,434.91c-4-.26-5-2-5-4.33.07-2.59,1.87-3.81,4.23-3.72s4.14,1.85,3.59,4.21C983.06,432.7,981.29,434,980.58,434.91Z" transform="translate(-768.32 -340.69)"/><path class="cls-9" d="M941.08,433.28c-3.44,3-7,2.71-7.38-.84a5.71,5.71,0,0,1,1.64-4.5c2.13-1.61,4.24-.51,5.75,1.56C941.09,430.76,941.09,432,941.08,433.28Z" transform="translate(-768.32 -340.69)"/><path class="cls-8" d="M976.18,638.51C975,637,972.86,635.45,973,634s2.13-3.63,3.7-4a3.2,3.2,0,0,1,4,3.68c-.22,1.7-1.81,3.23-2.78,4.83Z" transform="translate(-768.32 -340.69)"/><path class="cls-9" d="M1031,453a.64.64,0,0,0,0,.54l-2.53,4.33c-1.77-.82-3.92-1.3-5.15-2.62-.63-.67,0-3.86.75-4.19,1.7-.71,3.85-.31,5.82-.37Z" transform="translate(-768.32 -340.69)"/><path class="cls-9" d="M863,495.42c.68.86,2.49,2.19,2.85,3.83.61,2.79-1.71,4.33-4.07,3.95a5.66,5.66,0,0,1-3.73-3.59C857.53,497.42,859,495.57,863,495.42Z" transform="translate(-768.32 -340.69)"/><path class="cls-9" d="M895.2,456.48c-1.42,1-2.75,2.65-4.27,2.85-2.48.33-4.68-1.45-4.21-3.94a5.88,5.88,0,0,1,4.07-3.75c1.33-.15,2.93,2,4.42,3.13Z" transform="translate(-768.32 -340.69)"/><path class="cls-9" d="M879,589.72c-.44,3.73-1.91,5.41-4.33,4.72-1.54-.44-3.55-2.17-3.79-3.59a3.43,3.43,0,0,1,4.13-4C876.58,587.12,878,589,879,589.72Z" transform="translate(-768.32 -340.69)"/><path class="cls-9" d="M865.82,495.08c-1.94-2.6-4.07-4.22-3.9-5.53a5.81,5.81,0,0,1,3.76-4,3.48,3.48,0,0,1,3.92,4.23C869.36,491.26,867.68,492.56,865.82,495.08Z" transform="translate(-768.32 -340.69)"/><path class="cls-9" d="M856.43,561.21c1.55-1,3-2.66,4.69-2.87a3.26,3.26,0,0,1,3.81,3.86,5.94,5.94,0,0,1-4,3.69c-1.34.18-3-1.83-4.49-2.87Z" transform="translate(-768.32 -340.69)"/><path class="cls-9" d="M855.05,535.1c-.84-1.52-2.34-3-2.37-4.55,0-2.48,1.91-4.49,4.36-3.73a5.74,5.74,0,0,1,3.29,4.37c0,1.39-2.32,2.73-3.62,4.09Z" transform="translate(-768.32 -340.69)"/><path class="cls-9" d="M887.08,461.72c0,3.89-1.63,5.47-3.9,5.06-1.53-.29-3.65-2-3.92-3.45-.42-2.27,1.14-4.67,3.81-4.31C884.72,459.24,886.15,461.05,887.08,461.72Z" transform="translate(-768.32 -340.69)"/><path class="cls-9" d="M1057.27,518.26c.79-3.46,2.24-4.71,4.73-4.62s3.7,1.65,3.68,4.16c0,2.71-1.71,4.12-4,3.66C1060.06,521.13,1058.73,519.38,1057.27,518.26Z" transform="translate(-768.32 -340.69)"/><path class="cls-9" d="M881.06,472.48c-1.63.9-3.22,2.44-4.91,2.55-2.3.15-3.94-1.57-3.66-4.12s1.94-4.16,4.27-3.59c1.66.41,3,2.25,4.42,3.46Z" transform="translate(-768.32 -340.69)"/><path class="cls-9" d="M1047.52,578.06c1.14-2.31,2.83-3.53,5.42-2.39,2.8,1.23,2.64,3.59,2.06,6C1050.54,584.71,1047.9,583.42,1047.52,578.06Z" transform="translate(-768.32 -340.69)"/><path class="cls-9" d="M944,428c1.27-2.43,3.47-3,5.59-1.82a4.83,4.83,0,0,1,2.09,3.85c-.29,2.64-2.26,4-5,3.82Q945.29,430.94,944,428Z" transform="translate(-768.32 -340.69)"/><path class="cls-9" d="M881.87,594.59c1.17,1.43,3,2.72,3.36,4.34.51,2.33-1.11,3.94-3.69,4-2.43.06-4.43-1-4.11-3.57.21-1.65,1.75-3.13,2.69-4.69Z" transform="translate(-768.32 -340.69)"/><path class="cls-9" d="M1033.38,600.59c1.11,1.47,2.88,2.82,3.18,4.44.43,2.3-1.22,4.05-3.72,4.11a3.65,3.65,0,0,1-4.07-3.86C1028.68,602.73,1029.94,601.35,1033.38,600.59Z" transform="translate(-768.32 -340.69)"/><path class="cls-9" d="M1029.31,613.28c-1.56,1-3.06,2.65-4.71,2.83a3.41,3.41,0,0,1-3.71-4.36c.32-1.41,2.6-3.31,4-3.29s3,2,4.52,3.09C1029.36,612.13,1029.34,612.71,1029.31,613.28Z" transform="translate(-768.32 -340.69)"/><path class="cls-9" d="M985.34,434.14c.81-3.39,2.3-5.15,4.64-4.49,1.58.45,2.7,2.55,4,3.91-1.43,1.31-2.74,3.46-4.31,3.65C988.4,437.38,986.81,435.25,985.34,434.14Z" transform="translate(-768.32 -340.69)"/><path class="cls-9" d="M1007.63,619.34c1.07,1.45,2.73,2.79,3.07,4.39.5,2.41-1.05,3.86-3.68,4s-4-1.33-4.09-3.73S1004,619.88,1007.63,619.34Z" transform="translate(-768.32 -340.69)"/><path class="cls-9" d="M1017.17,622.53c-3.79-.39-5.42-2-4.78-4.34.42-1.49,2.81-3.74,3.76-3.49,1.63.42,3.74,2.42,3.92,4C1020.23,620,1018,621.57,1017.17,622.53Z" transform="translate(-768.32 -340.69)"/><path class="cls-9" d="M903.4,449.81c-1.57,1-3,2.64-4.71,2.84a3.2,3.2,0,0,1-3.52-4.14c.39-1.5,2.46-3.56,3.78-3.57,1.5,0,3,2,4.53,3.13Z" transform="translate(-768.32 -340.69)"/><path class="cls-9" d="M870.14,577.29c1.09,1.48,3.2,3.12,3,4.39-.24,1.49-2.3,3.37-3.92,3.8-2.43.66-3.87-1.22-3.89-3.7S866.69,577.92,870.14,577.29Z" transform="translate(-768.32 -340.69)"/><path class="cls-9" d="M956.6,630.65c1,1.54,3.2,3.46,2.85,4.54-.54,1.64-2.84,2.71-4.39,4-1.14-1.38-3.17-2.76-3.17-4.15s1.89-3,3-4.46Z" transform="translate(-768.32 -340.69)"/><path class="cls-8" d="M908.44,622.88c-1.92,0-4.47.72-5.59-.24s-.58-3.56-.78-5.45c2.66-1.46,5.16-1.62,7.32.92,0,.88.07,1.75.11,2.63C909.15,621.46,908.79,622.17,908.44,622.88Z" transform="translate(-768.32 -340.69)"/><path class="cls-9" d="M1001.84,627.51c-.84,3.44-2.28,4.69-4.81,4.57s-3.57-1.55-3.56-3.91c0-2.55,1.43-4.32,3.88-3.85C999,624.64,1000.35,626.4,1001.84,627.51Z" transform="translate(-768.32 -340.69)"/><path class="cls-9" d="M858.13,555.68c-2.38.15-3.55-1.25-3.61-3.6,0-2.75,1.39-4.15,4.18-4.07,2.49.07,3.65,1.5,3.62,3.84C862.3,554.41,860.91,555.74,858.13,555.68Z" transform="translate(-768.32 -340.69)"/><path class="cls-9" d="M861.47,540.27c-.72,3.41-1.91,4.82-4.55,4.88-2.44.06-4-1.28-4-3.46,0-2.41,1.4-4.59,4.19-4.12C858.64,537.83,860,539.33,861.47,540.27Z" transform="translate(-768.32 -340.69)"/><path class="cls-9" d="M1050.55,483.56l4.44.13c.31,1.93,1.5,4.46.69,5.62s-3.58,1.1-5.5,1.57l-1-.92a.44.44,0,0,0-.15-.43l0-4.5a.58.58,0,0,0,.19-.47l.94-.91A.42.42,0,0,0,1050.55,483.56Z" transform="translate(-768.32 -340.69)"/><path class="cls-9" d="M860.07,571.25c1.54-1,3.23-3,4.57-2.8a5.86,5.86,0,0,1,3.94,3.83c.36,2.29-1.76,4-4.14,3.53-1.57-.3-2.92-1.78-4.36-2.73Z" transform="translate(-768.32 -340.69)"/><path class="cls-9" d="M1059.62,569.67c-.08,2.45-1.16,4-3.82,4a3.75,3.75,0,0,1-4.07-3.92c-.09-2.39,1.39-3.65,3.72-3.77C1058,565.84,1059.45,567,1059.62,569.67Z" transform="translate(-768.32 -340.69)"/><path class="cls-9" d="M1005.39,442.71c.33-3.81,1.75-5.07,4.3-4.95s4,1.82,3.47,3.88c-.47,1.65-2.44,3.75-4,4C1007.93,445.79,1006.32,443.48,1005.39,442.71Z" transform="translate(-768.32 -340.69)"/><path class="cls-9" d="M862.31,509.57c.19,2.81-1.33,4.44-3.71,3.84a5.8,5.8,0,0,1-3.51-3.82c-.44-2.45,1.6-3.83,4-3.85S862.63,507.25,862.31,509.57Z" transform="translate(-768.32 -340.69)"/><path class="cls-9" d="M922.38,625.37c2.65-.83,5-.55,5.73,2.52.28,1.24-.23,3.66-1,4-1.64.62-3.67.2-5.54.21C919.75,629.57,921.06,627.47,922.38,625.37Z" transform="translate(-768.32 -340.69)"/><path class="cls-9" d="M1043.94,480.37c-.07-.87-.49-1.93-.14-2.57.77-1.4,1.77-3.4,3-3.65s3.47,1.06,4,2.25-.54,3-1.09,4.51c-.18.48-1,.72-1.48,1.07l-.34,0-.33.06-2.93-.86,0,.05-.78-.78Z" transform="translate(-768.32 -340.69)"/><path class="cls-9" d="M911,623.08a.41.41,0,0,0,.13-.43c.29-.32.58-.65.88-1a.67.67,0,0,0,.49-.25l5.84,1.24a.39.39,0,0,0,.15.4c0,1.25,0,2.5,0,3.76h0L915.46,629l-1.93-.08A5.35,5.35,0,0,1,911,623.08Z" transform="translate(-768.32 -340.69)"/><path class="cls-9" d="M962.78,430c-1.56,1-3.19,2.83-4.67,2.72-1.32-.1-2.47-2.37-3.69-3.69,1.47-1.34,2.77-3.32,4.48-3.78,1-.27,2.62,1.94,4,3Z" transform="translate(-768.32 -340.69)"/><path class="cls-9" d="M1065.43,535.64l.56.51-.51,5.85,0,0c-5.15,1.55-7.28-.43-6.28-5.82a.26.26,0,0,0,.32-.16l2.37-1.4h1.36Z" transform="translate(-768.32 -340.69)"/><path class="cls-9" d="M1043.08,591.51a4.52,4.52,0,0,1,0-5.89l5.89,0v0c0,2,0,3.94.08,5.91h0Z" transform="translate(-768.32 -340.69)"/><path class="cls-9" d="M1039.45,472.94c-.41-.47-1.16-.95-1.16-1.41,0-1.72-.19-3.8.68-5,.6-.85,3.2-1.18,4.26-.59a4.5,4.5,0,0,1,1.78,4c-.37,1.29-2.21,2.18-3.5,3.14-.33.24-1,.07-1.46.09A1,1,0,0,0,1039.45,472.94Z" transform="translate(-768.32 -340.69)"/><path class="cls-14" d="M1049,585.66l-5.89,0,4.45-7.56c.38,5.36,3,6.65,7.48,3.64a22.15,22.15,0,0,1-2.62,2.34A26.8,26.8,0,0,1,1049,585.66Z" transform="translate(-768.32 -340.69)"/><path class="cls-14" d="M944,428q1.31,2.92,2.63,5.85l-5.53-.58c0-1.26,0-2.52,0-3.78C942.06,429,943,428.51,944,428Z" transform="translate(-768.32 -340.69)"/><path class="cls-14" d="M1065.43,535.64l-2.15-1a8.83,8.83,0,0,0-2-1.53c-3.4-1.21-4.25-4.21-2-7.4-.84,5.4,1.2,7.28,6.3,5.78C1065.5,532.84,1065.47,534.24,1065.43,535.64Z" transform="translate(-768.32 -340.69)"/><path class="cls-14" d="M1028.46,457.84l2.53-4.33,1.26,2.71,4.82,1-.28.33c-2.61-.82-4.71-.25-6.15,2.2l-.36-.28Z" transform="translate(-768.32 -340.69)"/><path class="cls-14" d="M1059.23,536.16c-1,5.39,1.13,7.37,6.28,5.82-1.58,3-4.1,1.95-5.83.73C1057.3,541,1057.14,538.51,1059.23,536.16Z" transform="translate(-768.32 -340.69)"/><path class="cls-14" d="M918.53,626.83c0-1.26,0-2.51,0-3.76a9,9,0,0,0,1.5,1.34,17.36,17.36,0,0,0,2.36,1c-1.32,2.11-2.63,4.21-.79,6.69L920,629.3Z" transform="translate(-768.32 -340.69)"/><path class="cls-14" d="M911,623.08a5.35,5.35,0,0,0,2.5,5.88c-4.36.1-4-3-4-5.88H911Z" transform="translate(-768.32 -340.69)"/><path class="cls-14" d="M1049,591.55c0-2,0-3.94-.08-5.91l3.65,1.2Z" transform="translate(-768.32 -340.69)"/><path class="cls-14" d="M918.37,622.67l-5.84-1.24a38.36,38.36,0,0,1,4.89-1.12C917.64,620.29,918.05,621.84,918.37,622.67Z" transform="translate(-768.32 -340.69)"/><path class="cls-14" d="M1037.82,458c2.83,1,3,2.24.81,4.61l-.2-.17-.9-4.18Z" transform="translate(-768.32 -340.69)"/><path class="cls-14" d="M909.39,618.11c-2.16-2.54-4.66-2.38-7.32-.92,1.28-3.26,4-1.14,6-1.46C908.38,615.68,908.94,617.27,909.39,618.11Z" transform="translate(-768.32 -340.69)"/><path class="cls-14" d="M1049,485l0,4.5C1047.21,488,1045.35,486.56,1049,485Z" transform="translate(-768.32 -340.69)"/><path class="cls-14" d="M1043.08,591.51l6,0C1047,593.78,1045,593.77,1043.08,591.51Z" transform="translate(-768.32 -340.69)"/><path class="cls-14" d="M1065.48,542l.51-5.85C1067.59,538.25,1068.14,540.26,1065.48,542Z" transform="translate(-768.32 -340.69)"/><path class="cls-14" d="M915.46,629l3.07-2.22C918.73,629.26,917.11,629.18,915.46,629Z" transform="translate(-768.32 -340.69)"/><path class="cls-14" d="M1044.62,481.15l2.93.86C1046.62,483.51,1046.62,483.51,1044.62,481.15Z" transform="translate(-768.32 -340.69)"/><path class="cls-14" d="M1061.92,534.6l-2.37,1.4Z" transform="translate(-768.32 -340.69)"/><path class="cls-14" d="M908.44,622.88c.35-.71.71-1.42,1.06-2.14,0,.78,0,1.55,0,2.33h0Z" transform="translate(-768.32 -340.69)"/><path class="cls-14" d="M1031,453l-1.08-2.31Z" transform="translate(-768.32 -340.69)"/><path class="cls-14" d="M912,621.68c-.3.32-.59.65-.88,1C911.45,622.33,911.74,622,912,621.68Z" transform="translate(-768.32 -340.69)"/><path class="cls-14" d="M1049.17,490l1,.92Z" transform="translate(-768.32 -340.69)"/><path class="cls-14" d="M1037.07,457.25l.75.74-.28.26-.75-.67Z" transform="translate(-768.32 -340.69)"/><path class="cls-15" d="M953,613.23l.76,0Z" transform="translate(-768.32 -340.69)"/><path class="cls-14" d="M1050.12,483.65l-.94.91Z" transform="translate(-768.32 -340.69)"/><path class="cls-14" d="M1043.88,480.42l.78.78Z" transform="translate(-768.32 -340.69)"/><path class="cls-16" d="M911.81,590.75l1.68.63-1.86.63Z" transform="translate(-768.32 -340.69)"/><path class="cls-9" d="M1036.79,457.58l.75.67c.29,1.39.59,2.79.89,4.18-1.21,2.08-3.2,3.38-5.22,2.11-1.33-.83-1.75-3.12-2.57-4.76C1032.08,457.33,1034.18,456.76,1036.79,457.58Z" transform="translate(-768.32 -340.69)"/><path class="cls-6" d="M956,492.51l1.51-3c1-.78,1.91-1.61,2.92-2.35s2-1.39,3.06-2.08q0,6,0,12l-4.31-2a33.11,33.11,0,0,1-1.77,5.21c-.57,1.13-1.88,1.89-2.86,2.82C955,499.52,955.51,496,956,492.51Z" transform="translate(-768.32 -340.69)"/><path class="cls-12" d="M963.48,485c-1,.69-2.07,1.35-3.06,2.08s-1.95,1.57-2.92,2.35c.5-3.49,1-7,1.51-10.48l3.09-1.57Z" transform="translate(-768.32 -340.69)"/><path class="cls-17" d="M962.1,477.42,959,479q.72-4.31,1.42-8.61l1.67.09Z" transform="translate(-768.32 -340.69)"/><path class="cls-16" d="M1015.84,574c0-.09.06-.26.1-.26s.2.06.31.09-.06.26-.1.26A.91.91,0,0,1,1015.84,574Z" transform="translate(-768.32 -340.69)"/><path class="cls-18" d="M1023.47,572.71l.46-.27c-.09.15-.18.31-.26.47Z" transform="translate(-768.32 -340.69)"/><path class="cls-19" d="M901.28,578.09l.78.62Z" transform="translate(-768.32 -340.69)"/></svg>